<?xml version="1.0" standalone="no"?>
<!DOCTYPE svg PUBLIC "-//W3C//DTD SVG 20010904//EN"
 "http://www.w3.org/TR/2001/REC-SVG-20010904/DTD/svg10.dtd">
<svg version="1.0" xmlns="http://www.w3.org/2000/svg"
 width="1389.000000pt" height="1718.000000pt" viewBox="0 0 1389.000000 1718.000000"
 preserveAspectRatio="xMidYMid meet">
<metadata>
Created by potrace 1.16, written by Peter Selinger 2001-2019
</metadata>
<g transform="translate(0.000000,1718.000000) scale(0.100000,-0.100000)"
fill="#000000" stroke="none">
<path d="M2 16103 c1 -593 3 -1058 5 -1033 52 691 427 1336 998 1717 311 208
642 331 997 372 51 6 107 13 123 15 17 1 -455 4 -1047 5 l-1078 1 2 -1077z"/>
<path d="M3253 17113 c8 -98 39 -174 111 -283 36 -52 68 -109 71 -125 l7 -30
-17 24 c-19 25 -72 51 -105 51 -15 0 -20 -7 -21 -27 0 -25 -1 -25 -8 -8 -5 11
-7 23 -4 27 2 4 -9 15 -24 25 -38 25 -162 27 -156 3 4 -16 43 -23 43 -7 0 4 5
5 10 2 6 -4 8 -11 5 -16 -4 -5 -1 -9 4 -9 6 0 11 -7 11 -15 0 -15 -4 -15 -60
-1 -3 0 -16 -10 -29 -23 -21 -21 -30 -23 -78 -18 -30 3 -61 11 -69 18 -11 9
-18 9 -32 -4 -9 -8 -26 -17 -37 -19 -12 -2 -18 -10 -16 -19 14 -51 10 -54 -64
-50 -38 2 -72 5 -75 8 -10 10 28 23 67 23 23 0 44 4 48 9 7 12 -27 31 -55 31
-19 0 -21 4 -16 25 10 41 -29 33 -49 -10 -13 -26 -28 -38 -63 -51 -26 -10 -54
-22 -62 -28 -17 -12 -23 -97 -8 -107 18 -11 45 2 57 27 9 21 13 23 30 12 16
-10 27 -9 56 5 43 20 62 21 115 5 38 -12 40 -15 40 -54 0 -36 -5 -45 -42 -75
-94 -75 -107 -81 -162 -74 -28 4 -63 14 -78 21 -39 20 -53 18 -90 -14 -18 -15
-59 -43 -91 -62 -80 -48 -117 -84 -117 -114 0 -34 22 -34 84 -1 26 14 56 25
66 25 10 0 24 8 30 18 9 13 10 7 6 -28 -5 -43 -5 -44 10 -22 19 26 27 27 48 6
24 -23 19 -60 -11 -95 l-28 -31 -5 38 -5 39 -12 -33 c-8 -22 -9 -31 -1 -26 6
4 9 1 6 -7 -6 -17 -30 -19 -40 -4 -11 15 -9 -95 4 -295 13 -195 13 -256 -1
-293 -7 -17 -5 -39 4 -70 12 -40 11 -50 -6 -103 -14 -40 -22 -98 -25 -179 -6
-151 -21 -233 -43 -231 -9 1 -45 31 -80 69 -61 63 -101 85 -101 52 0 -7 6 -18
14 -22 7 -4 39 -42 70 -83 48 -64 56 -81 56 -118 0 -57 -16 -88 -36 -71 -8 6
-18 8 -22 4 -4 -4 -1 -10 6 -12 6 -3 12 -10 12 -16 0 -16 -86 -95 -107 -99
-10 -2 -19 -13 -21 -26 -3 -17 0 -21 15 -16 10 4 23 12 28 19 15 17 48 2 73
-33 25 -34 20 -44 -16 -35 -18 4 -23 2 -20 -8 3 -8 17 -14 32 -14 29 -1 56
-27 56 -53 0 -19 -58 -72 -78 -72 -9 0 -31 14 -49 32 -35 34 -41 28 -21 -19
32 -78 13 -123 -45 -106 -33 9 -72 -3 -110 -35 -25 -22 -41 -87 -27 -112 8
-16 8 -20 -4 -20 -21 0 -30 -73 -23 -179 9 -135 59 -233 213 -411 23 -26 55
-72 73 -103 54 -94 135 -159 295 -237 77 -37 161 -71 186 -75 25 -4 47 -10 50
-14 3 -4 17 -14 32 -23 20 -13 28 -14 32 -5 3 6 4 3 1 -8 -4 -16 4 -23 38 -37
23 -9 54 -19 68 -22 14 -3 43 -19 64 -36 21 -16 44 -30 51 -30 35 0 51 -37 63
-141 6 -57 16 -135 22 -174 7 -38 11 -133 11 -210 -1 -124 9 -243 36 -425 4
-30 18 -84 30 -120 12 -36 35 -121 52 -190 17 -69 35 -139 41 -156 5 -17 9
-36 9 -43 0 -8 20 -55 45 -107 25 -51 45 -96 45 -99 0 -4 16 -39 34 -79 51
-105 90 -202 115 -286 39 -131 79 -254 92 -285 18 -42 21 -86 8 -101 -6 -8 -7
-14 -2 -14 9 0 -1 -128 -12 -138 -14 -14 -20 17 -17 91 2 94 11 83 -118 147
-78 40 -152 57 -195 46 -30 -8 -32 -27 -6 -43 22 -14 33 -72 17 -89 -8 -10
-23 -1 -62 38 -38 37 -57 48 -71 44 -32 -10 -62 -78 -78 -177 -63 -392 -67
-456 -35 -623 11 -61 28 -149 37 -196 14 -74 83 -307 131 -440 9 -24 30 -62
47 -85 18 -22 53 -86 79 -140 27 -55 52 -102 57 -105 7 -5 28 -118 29 -156 0
-6 8 -21 19 -33 15 -17 28 -21 71 -20 28 1 55 -2 58 -7 4 -6 26 -10 48 -9 40
0 42 -1 40 -27 -2 -23 1 -27 16 -22 23 7 23 -8 0 -29 -23 -21 -36 -22 -28 -2
6 16 -15 19 -48 6 -14 -5 -16 -10 -8 -15 7 -4 12 -18 12 -32 0 -15 -4 -23 -11
-19 -5 4 -19 -4 -30 -17 -13 -14 -29 -22 -42 -20 -12 2 -19 0 -14 -4 19 -20
89 -34 168 -34 78 0 93 3 145 31 33 17 74 42 92 56 32 24 34 24 53 7 10 -9 19
-27 19 -40 0 -13 5 -26 10 -29 6 -4 31 -48 56 -98 25 -50 49 -96 53 -102 4 -5
25 -50 46 -100 51 -123 181 -389 222 -453 18 -29 33 -54 33 -56 0 -3 16 -32
37 -66 36 -61 51 -117 73 -270 14 -101 25 -156 60 -285 30 -115 31 -126 27
-268 -2 -81 0 -150 5 -153 4 -3 8 -11 7 -17 0 -9 -2 -9 -6 1 -10 25 -46 10
-96 -41 -65 -65 -106 -158 -148 -335 -31 -131 -64 -208 -151 -356 -27 -43 -48
-83 -48 -87 0 -4 -16 -17 -35 -29 -19 -12 -35 -25 -35 -29 0 -3 -15 -22 -33
-41 -37 -39 -97 -124 -97 -138 0 -19 -73 -92 -93 -92 -11 0 -48 -9 -81 -19
-34 -11 -88 -26 -121 -35 -164 -41 -294 -84 -317 -104 -10 -8 -24 -12 -33 -8
-19 7 -88 -24 -125 -55 -23 -19 -25 -28 -24 -93 3 -104 5 -129 16 -150 13 -23
4 -22 -142 30 -98 34 -115 37 -245 41 -169 6 -271 -11 -377 -61 -40 -18 -107
-48 -148 -66 -41 -18 -122 -54 -180 -80 -114 -52 -238 -92 -337 -110 -88 -15
-335 -110 -539 -206 -54 -25 -142 -61 -194 -79 -52 -18 -149 -54 -215 -80 -66
-26 -185 -68 -265 -95 -80 -27 -185 -67 -233 -89 -49 -23 -91 -41 -93 -41 -2
0 -4 7 -4 15 0 17 -35 20 -45 4 -4 -5 1 -19 10 -29 20 -22 11 -43 -16 -35 -40
13 -229 -99 -229 -136 0 -10 5 -19 10 -19 6 0 10 -7 10 -15 0 -8 -4 -15 -10
-15 -6 0 -10 -69 -10 -186 0 -145 3 -184 13 -180 6 3 20 9 30 12 9 4 17 10 17
15 0 5 4 9 9 9 13 0 -17 -86 -35 -101 -17 -14 -19 -39 -2 -39 6 0 2 -10 -10
-23 -20 -21 -30 -57 -17 -57 12 0 63 36 107 77 46 42 68 53 68 34 0 -5 -29
-35 -65 -66 -36 -32 -62 -61 -59 -66 3 -5 -2 -6 -10 -3 -11 4 -13 0 -9 -14 3
-14 -1 -21 -16 -25 -18 -4 -21 -13 -21 -66 l0 -61 26 23 c15 12 32 27 38 33
17 16 56 -1 56 -25 0 -23 -64 -81 -89 -81 -10 0 -22 -7 -25 -16 -3 -9 -6 -699
-6 -1535 l0 -1519 6945 0 6945 0 0 8590 0 8590 -1077 -1 c-593 -1 -1064 -4
-1048 -5 17 -2 72 -9 123 -15 874 -101 1608 -706 1888 -1557 l44 -132 0 -5706
0 -5705 -22 7 c-13 3 -41 16 -63 27 -42 22 -66 32 -180 73 -97 35 -133 44
-137 32 -2 -6 -18 -3 -38 6 l-35 16 34 -5 c47 -7 39 -2 -54 35 -44 17 -102 42
-130 55 -27 12 -86 35 -130 50 -44 15 -98 36 -121 46 -22 11 -44 19 -48 19 -5
0 -52 15 -105 34 -144 50 -199 64 -276 71 -103 9 -123 14 -130 34 -4 13 -19
20 -49 23 -50 6 -102 44 -86 63 12 14 -7 25 -41 25 -11 0 -30 7 -43 15 -18 12
-37 14 -80 9 -49 -6 -59 -11 -67 -32 -7 -19 -14 -23 -32 -18 -12 3 -25 6 -29
6 -3 0 -4 9 -1 20 3 11 1 20 -5 20 -5 0 -9 -8 -8 -18 1 -13 -8 -18 -36 -20
-33 -3 -40 1 -50 23 -10 23 -9 29 16 52 30 27 29 41 -1 23 -14 -9 -29 -9 -61
-1 -23 7 -40 16 -37 20 2 5 -2 14 -9 20 -10 8 -16 9 -21 1 -9 -15 -71 -12 -85
5 -6 8 -38 20 -71 26 -32 6 -56 15 -53 20 6 10 -19 21 -86 38 -107 28 -176 42
-192 37 -11 -2 -18 1 -18 9 0 8 -12 23 -27 35 -15 11 -34 33 -43 48 -53 87
-246 467 -268 527 -6 17 -18 64 -28 105 -33 149 -79 323 -94 358 -26 59 -35
73 -38 63 -2 -6 4 -25 12 -43 11 -21 13 -35 6 -42 -5 -5 -10 -34 -10 -63 0
-40 -5 -58 -20 -73 -12 -12 -18 -25 -15 -30 3 -4 0 -10 -5 -12 -6 -2 -13 -16
-16 -32 -7 -41 -13 -48 -36 -40 -14 4 -18 2 -14 -5 4 -6 15 -11 24 -12 14 0
13 -2 -3 -8 -11 -5 -24 -6 -29 -3 -13 7 0 91 17 110 14 15 32 79 26 92 -1 3 8
25 20 49 17 32 21 53 17 80 -4 20 -8 47 -10 59 -3 30 -42 77 -75 92 -14 6 -64
37 -111 68 -114 75 -290 155 -403 183 -21 5 -60 21 -87 34 -27 14 -68 27 -92
30 -24 3 -56 10 -73 15 -36 11 -170 30 -281 39 -56 4 -88 11 -100 23 -22 19
-113 41 -269 63 -60 8 -124 18 -142 21 l-31 6 5 -291 c4 -222 2 -291 -7 -291
-7 0 -10 -6 -7 -14 3 -8 -1 -22 -8 -33 -17 -21 -19 -37 -5 -28 6 4 10 -6 10
-24 0 -17 5 -41 11 -55 9 -18 9 -29 1 -38 -6 -7 -13 -39 -15 -71 -4 -46 -2
-59 10 -64 11 -4 13 -14 8 -42 -4 -20 -12 -39 -18 -43 -7 -4 -6 -14 5 -30 17
-27 32 -118 19 -118 -5 0 -12 6 -14 13 -4 8 -6 9 -6 0 -1 -6 5 -18 12 -25 7
-7 19 -28 26 -45 18 -43 36 -43 27 0 -14 61 -17 107 -8 107 5 0 8 52 6 115 -2
67 1 115 7 115 10 0 8 28 -4 48 -5 6 -4 12 2 12 5 0 16 3 24 6 10 3 17 -3 21
-20 9 -35 107 -177 180 -260 117 -133 112 -129 157 -123 38 5 41 3 51 -24 5
-16 14 -29 19 -29 16 0 121 -105 139 -140 10 -19 35 -55 57 -80 21 -25 44 -58
51 -74 17 -39 36 -337 27 -440 l-7 -84 -32 -6 c-17 -3 -49 -15 -70 -27 -38
-20 -66 -20 -66 1 0 12 -63 70 -69 64 -2 -2 3 -12 11 -21 9 -10 18 -29 20 -43
3 -14 9 -32 12 -41 6 -13 -26 -35 -156 -108 -90 -50 -206 -121 -258 -158 -86
-62 -98 -76 -147 -158 -29 -49 -60 -106 -69 -125 -23 -51 -151 -177 -209 -207
-27 -14 -70 -40 -95 -57 -25 -18 -66 -45 -92 -59 -71 -41 -288 -195 -333 -236
-45 -42 -123 -90 -235 -146 -41 -21 -93 -50 -115 -65 -22 -15 -81 -48 -131
-73 -50 -25 -136 -73 -190 -106 -54 -34 -112 -64 -130 -67 -19 -3 -38 -12 -45
-20 -6 -8 -17 -14 -23 -14 -6 0 -22 -9 -36 -20 -33 -26 -62 -25 -97 3 -15 13
-73 51 -128 86 -55 35 -125 80 -155 101 -30 20 -109 68 -175 105 -66 38 -140
83 -165 100 -51 37 -278 155 -297 155 -15 0 -81 38 -107 62 -10 9 -23 15 -27
12 -4 -2 -7 4 -6 15 1 16 5 17 30 9 15 -6 31 -8 34 -4 3 3 12 1 19 -5 8 -6 22
-8 31 -4 26 11 126 5 141 -7 9 -8 16 -6 26 7 13 18 14 18 24 -1 9 -16 14 -17
31 -6 27 16 31 15 31 -3 0 -8 9 -15 19 -15 11 0 21 -4 23 -10 2 -5 25 -4 58 4
30 8 45 14 32 15 -13 1 -21 5 -18 10 3 4 17 6 31 4 13 -3 23 -8 21 -12 -2 -3
18 -6 45 -7 30 -1 46 3 42 9 -3 6 -1 7 5 3 13 -8 82 35 79 51 -1 7 13 23 32
37 19 15 30 26 23 26 -24 0 -11 18 23 34 19 9 35 24 35 32 0 9 15 33 32 54 18
21 33 45 33 52 1 32 18 98 26 104 5 3 9 13 9 23 0 9 10 37 22 62 12 24 23 54
25 67 5 30 33 62 49 55 8 -3 14 2 14 11 0 9 -4 16 -10 16 -16 0 -12 40 5 46 8
4 15 15 15 25 0 11 11 36 24 57 13 21 27 52 30 69 4 17 16 41 27 54 10 12 19
32 19 44 0 11 7 30 15 41 8 10 15 29 15 42 0 12 5 22 10 22 6 0 10 11 10 25 0
14 3 25 8 25 15 0 52 68 52 97 0 17 8 41 19 54 10 13 27 45 38 70 11 25 41 72
65 105 25 32 63 93 85 134 58 109 83 153 99 171 8 8 14 19 14 22 0 4 15 29 34
55 18 27 37 59 41 73 12 37 41 92 62 114 35 38 83 109 83 123 0 8 18 35 41 60
23 26 51 67 64 92 13 25 35 59 50 75 15 17 37 52 50 79 13 26 34 60 48 75 26
28 27 30 97 170 25 50 50 90 55 91 6 0 28 39 49 88 21 48 44 94 50 102 14 17
20 31 74 160 21 52 54 131 73 175 19 44 33 84 31 88 -1 5 6 25 17 45 19 37 50
123 54 152 1 8 8 25 15 38 8 13 11 30 8 38 -3 8 -2 14 3 14 8 0 16 25 46 135
9 33 21 67 26 75 13 22 15 29 30 93 7 32 18 57 25 57 6 0 15 7 18 16 8 21 8
24 -5 24 -5 0 -8 -4 -4 -9 3 -5 1 -12 -4 -16 -6 -3 -9 10 -6 32 1 21 3 46 4
55 1 10 11 26 22 37 12 11 19 26 16 34 -3 9 1 14 11 13 13 -1 16 6 14 31 -2
18 3 45 12 60 8 16 20 73 26 128 19 162 30 248 35 280 2 17 8 57 14 90 5 33
14 86 21 118 10 45 10 63 1 80 -7 13 -10 47 -8 85 3 34 1 62 -4 62 -5 0 -9 5
-9 12 0 9 3 9 12 0 16 -16 28 -15 28 3 0 8 12 26 26 40 22 22 25 33 21 61 -3
19 -2 34 2 34 7 0 31 72 45 133 5 21 3 28 -6 24 -7 -2 -12 -10 -10 -16 3 -14
-15 -15 -23 -1 -3 6 -1 10 5 10 7 0 9 7 6 16 -5 13 -2 15 14 11 24 -6 32 7 50
88 7 33 15 62 17 64 1 2 36 -13 76 -33 87 -44 176 -66 267 -64 36 0 54 2 40 4
-120 18 -220 51 -220 72 0 4 -16 14 -35 20 -18 7 -45 26 -59 43 -22 25 -29 28
-46 19 -11 -6 -20 -15 -20 -21 0 -6 -4 -7 -10 -4 -5 3 -10 15 -10 26 0 11 5
17 10 14 6 -3 10 2 11 12 0 10 4 44 8 76 7 59 -3 79 -14 27 -10 -46 -25 -35
-21 16 2 31 -1 50 -12 60 -10 11 -12 18 -4 22 7 5 6 13 -4 26 -7 11 -17 16
-21 12 -4 -4 -1 -11 7 -16 8 -5 11 -12 7 -16 -4 -4 -13 -2 -19 4 -17 17 -28
15 -28 -4 0 -8 4 -13 8 -10 5 3 18 -3 30 -14 20 -19 20 -50 0 -76 -5 -7 -8
-16 -7 -20 4 -23 -2 -45 -11 -39 -5 3 -6 13 -3 23 10 28 -4 10 -31 -42 -21
-40 -24 -52 -13 -64 10 -13 9 -15 -7 -9 -32 12 -45 -8 -34 -51 19 -68 19 -69
28 -47 6 17 9 15 24 -17 10 -20 24 -39 32 -42 9 -3 12 -10 9 -16 -9 -15 -25
-12 -25 5 0 20 -20 19 -35 -2 -12 -16 -14 -16 -29 0 -22 21 -11 43 12 25 9 -8
7 1 -7 20 -12 17 -27 32 -32 32 -13 0 -11 -18 3 -23 10 -3 10 -7 2 -18 -17
-21 -25 -80 -14 -94 6 -7 10 -17 9 -21 -5 -31 2 -45 21 -39 11 3 20 2 20 -3 0
-5 -9 -12 -20 -15 -25 -7 -52 32 -38 56 7 13 5 17 -10 17 -14 0 -21 -8 -24
-29 -2 -17 -1 -28 3 -26 9 6 17 -16 12 -32 -7 -19 -23 -16 -23 5 -1 15 -2 15
-15 -2 -17 -23 -20 -40 -5 -31 13 8 13 2 -2 -30 -7 -15 -17 -24 -25 -21 -7 3
-13 -1 -13 -9 0 -8 9 -15 20 -15 11 0 20 7 20 15 0 8 5 15 11 15 8 0 9 -10 4
-32 -5 -18 -8 -48 -8 -65 -1 -29 -3 -32 -24 -27 -25 7 -28 2 -13 -26 12 -22 3
-50 -15 -50 -9 0 -13 -11 -13 -30 1 -38 -5 -44 -31 -30 -13 6 -21 21 -21 35 0
14 -4 25 -8 25 -17 0 -32 -26 -32 -55 0 -19 -8 -39 -20 -50 -16 -14 -19 -26
-14 -47 5 -27 4 -28 -21 -22 -24 6 -26 4 -23 -17 2 -20 -1 -24 -21 -21 -13 1
-30 10 -37 20 -15 18 -18 10 -15 -35 3 -28 -15 -38 -29 -16 -9 15 -9 14 -5 -7
4 -18 -1 -34 -17 -53 -34 -39 -44 -34 -14 6 26 34 26 34 6 52 -11 10 -23 15
-27 12 -4 -4 2 -14 13 -22 19 -14 18 -15 -6 -35 -30 -23 -48 -25 -74 -5 -28
22 -37 18 -30 -10 4 -15 2 -25 -5 -25 -6 0 -11 4 -11 9 0 5 -8 8 -17 7 -12 -1
-17 5 -15 17 2 11 -2 17 -10 15 -17 -4 -78 22 -78 33 0 4 21 9 48 11 26 2 46
6 45 11 -2 4 -6 7 -9 6 -4 0 -11 5 -15 13 -7 10 -9 9 -9 -5 0 -14 -5 -17 -22
-12 -36 11 -44 23 -30 45 24 38 13 49 -18 18 -17 -17 -28 -33 -26 -36 3 -3 0
-12 -7 -20 -10 -13 -9 -15 5 -9 15 5 16 3 6 -18 -12 -27 -24 -32 -30 -14 -5
14 -48 -6 -48 -21 0 -13 17 -13 25 1 5 6 11 4 19 -7 9 -12 15 -14 20 -6 4 7
12 12 18 12 7 0 7 -5 -1 -14 -6 -7 -10 -20 -8 -27 2 -8 2 -11 0 -6 -3 4 -11 7
-19 7 -8 0 -14 5 -14 10 0 17 -28 11 -39 -7 -8 -16 -10 -14 -16 10 -8 31 0 61
14 52 6 -3 15 5 22 17 7 13 17 26 23 30 6 4 -1 8 -16 8 -18 0 -29 -6 -33 -19
-3 -11 -12 -18 -18 -15 -8 3 -20 -12 -31 -35 -15 -36 -19 -39 -37 -28 -10 6
-17 18 -14 24 2 7 0 13 -4 13 -19 0 -18 -26 2 -47 11 -13 15 -23 9 -23 -6 0
-14 5 -17 10 -8 13 -38 13 -52 -1 -13 -13 -5 -42 9 -33 5 3 4 -4 -4 -16 -11
-19 -10 -23 7 -37 19 -14 19 -15 -12 -11 -30 4 -33 2 -33 -22 0 -31 -17 -51
-36 -43 -18 7 -13 -59 6 -101 13 -27 13 -30 -13 -52 -30 -25 -28 -31 4 -14 13
8 19 7 19 0 0 -6 4 -8 10 -5 6 3 10 11 10 16 0 6 -5 7 -10 4 -15 -9 -12 5 5
22 14 13 13 17 -10 35 -23 18 -24 20 -9 44 22 33 45 15 38 -29 -5 -30 -5 -31
10 -13 9 11 19 16 23 12 4 -4 0 -12 -10 -17 -20 -12 -22 -26 -4 -32 6 -2 4 -3
-5 -2 -26 4 -22 -14 5 -25 18 -7 19 -9 3 -9 -11 -1 -16 -6 -13 -15 4 -10 0
-12 -14 -9 -11 3 -19 0 -19 -7 0 -7 -7 -10 -15 -7 -11 5 -12 1 -5 -18 6 -16 6
-25 0 -25 -6 0 -10 -5 -10 -11 0 -6 7 -8 16 -5 13 5 14 3 7 -6 -7 -9 -7 -21
-1 -38 9 -23 11 -24 17 -6 6 15 10 16 16 7 12 -21 -17 -32 -37 -14 -10 9 -15
19 -13 23 3 4 -2 11 -11 14 -10 4 -14 12 -10 23 4 10 4 14 -1 9 -10 -10 -10
-79 0 -87 4 -3 4 -16 -1 -29 l-9 -24 -12 22 c-18 33 -30 18 -17 -22 6 -19 13
-33 17 -30 10 6 17 -54 7 -68 -6 -10 -8 -8 -8 5 0 19 -15 23 -25 7 -5 -8 -11
-7 -21 1 -8 6 -16 10 -18 8 -8 -8 19 -36 49 -52 l30 -16 -32 -1 c-17 0 -34 6
-36 13 -4 9 -8 8 -16 -3 -9 -13 -14 -13 -32 -2 -11 7 -24 10 -27 6 -4 -4 -1
-9 6 -11 6 -3 12 -10 12 -16 0 -7 10 -17 22 -22 11 -6 28 -21 36 -33 l16 -24
-35 21 c-19 11 -42 21 -52 21 -17 0 -17 -1 -3 -16 15 -14 23 -54 11 -54 -3 0
-23 12 -45 26 -21 14 -45 24 -52 22 -7 -3 -28 6 -47 19 -51 34 -60 28 -17 -12
32 -29 37 -39 32 -62 -4 -18 -3 -23 2 -14 7 10 13 6 24 -16 16 -32 12 -43 -24
-72 -16 -12 -18 -11 -18 8 0 11 3 20 8 19 4 -2 7 2 7 7 0 6 -3 9 -7 7 -5 -1
-8 6 -8 15 0 24 -69 68 -83 54 -7 -7 -2 -13 15 -20 15 -5 29 -15 33 -21 3 -5
12 -7 18 -3 7 3 3 -4 -8 -16 -13 -16 -26 -20 -42 -16 -23 5 -32 -8 -13 -20 6
-4 7 -11 4 -17 -4 -6 0 -15 7 -20 11 -8 11 -9 -2 -5 -9 3 -21 1 -27 -5 -7 -7
-17 -6 -31 1 -19 10 -21 9 -21 -13 0 -31 -9 -56 -21 -56 -5 0 -7 14 -5 32 2
18 0 41 -4 53 -7 19 -8 18 -15 -7 -8 -32 -25 -37 -25 -9 0 11 -4 23 -10 26 -6
4 -10 -11 -10 -37 -1 -39 -2 -41 -15 -24 -8 11 -12 30 -8 46 5 29 -11 70 -27
70 -6 0 -7 -15 -4 -35 3 -24 1 -40 -10 -50 -19 -19 -26 -19 -26 0 0 8 -4 15
-10 15 -5 0 -10 9 -10 20 0 11 -4 20 -10 20 -5 0 -10 -13 -10 -28 0 -28 -24
-72 -34 -62 -3 3 -1 25 5 48 7 33 6 49 -6 72 -20 39 -28 38 -22 -2 3 -28 -6
-68 -21 -88 -9 -13 -19 26 -11 42 6 10 7 28 4 38 -4 12 -2 20 4 20 6 0 11 5
11 10 0 6 -12 3 -27 -7 -22 -14 -24 -19 -10 -21 9 -2 17 -10 17 -18 0 -16 -16
-19 -25 -4 -4 6 -11 8 -16 4 -5 -3 -7 -9 -4 -14 3 -5 1 -11 -4 -14 -16 -10
-23 13 -23 75 0 51 -2 58 -14 48 -10 -8 -12 -22 -8 -45 4 -25 1 -42 -12 -62
-11 -15 -22 -34 -25 -42 -3 -8 -9 9 -13 37 -6 51 -25 82 -27 46 0 -10 -2 -31
-2 -47 -1 -16 -8 -31 -14 -33 -18 -6 -17 101 2 152 17 48 18 65 5 65 -5 0 -7
-6 -4 -13 3 -8 -7 -25 -21 -40 -15 -14 -24 -31 -20 -37 4 -6 2 -16 -3 -23 -5
-7 -12 -21 -14 -32 -5 -19 -5 -19 -13 -1 -5 11 -3 21 5 26 8 5 10 18 6 36 -9
36 -14 65 -15 82 -1 6 -5 12 -11 12 -5 0 -7 -7 -4 -15 3 -8 2 -20 -2 -27 -5
-7 -7 -23 -6 -35 2 -11 -2 -24 -7 -28 -7 -4 -11 6 -11 25 0 21 -4 30 -12 27
-7 -2 -12 -9 -11 -15 1 -5 -7 -18 -17 -27 -12 -11 -20 -31 -20 -50 0 -21 -9
-40 -25 -55 -14 -13 -25 -18 -25 -11 0 16 -25 9 -26 -7 -3 -25 -5 -27 -14 -12
-18 28 -11 81 13 102 18 16 19 19 4 14 -10 -3 -22 -6 -26 -6 -12 0 -61 -80
-61 -100 0 -10 -7 -23 -15 -30 -8 -7 -15 -22 -16 -34 0 -21 -1 -21 -11 2 -9
18 -8 25 8 36 10 8 16 17 12 21 -9 9 19 85 39 108 15 15 15 20 3 27 -9 6 -15
26 -15 54 0 25 -2 46 -5 46 -4 0 -12 -17 -19 -37 -8 -21 -22 -45 -31 -53 -9
-8 -20 -26 -23 -40 -4 -14 -4 -19 -1 -12 9 19 24 14 24 -8 0 -12 -12 -32 -26
-47 -14 -14 -23 -31 -20 -39 3 -7 0 -16 -6 -20 -6 -4 -8 -3 -5 3 4 6 0 19 -8
29 -13 17 -14 16 -8 -18 5 -31 1 -41 -22 -62 -15 -14 -31 -23 -36 -20 -12 7 1
34 17 34 9 0 14 11 14 30 0 17 -4 30 -10 30 -5 0 -10 -7 -10 -16 0 -8 -7 -22
-15 -30 -8 -9 -15 -30 -15 -48 0 -18 -7 -41 -16 -52 -14 -18 -15 -16 -11 29 4
40 2 48 -12 45 -11 -3 -16 -14 -16 -41 0 -32 -3 -37 -22 -37 -26 0 -27 3 -11
33 6 12 10 39 10 59 -1 21 7 54 17 74 19 34 18 74 -1 74 -6 0 -8 -9 -5 -19 3
-12 -3 -27 -14 -37 -10 -9 -19 -25 -19 -36 0 -27 -29 -22 -36 8 -4 14 -2 36 5
50 14 31 -8 34 -27 4 -7 -11 -17 -20 -22 -20 -16 0 -23 27 -11 42 45 55 61 77
61 87 0 29 -42 -7 -75 -66 -10 -17 -27 -34 -37 -37 -11 -2 -24 -18 -31 -35
-12 -32 -27 -42 -27 -18 0 8 11 27 25 43 14 16 25 33 25 38 0 5 7 17 16 27 21
23 9 42 -22 35 -23 -6 -24 -4 -18 21 10 40 25 58 35 41 6 -9 9 -6 9 9 0 27
-18 40 -26 18 -4 -8 -14 -14 -23 -13 -10 2 -15 -3 -15 -15 1 -10 -15 -32 -37
-49 -21 -17 -39 -36 -39 -41 0 -6 9 -2 20 8 32 29 31 13 -1 -23 -16 -18 -29
-27 -29 -20 -1 7 -12 0 -25 -17 l-25 -30 0 29 c0 16 3 26 7 23 11 -12 33 14
33 39 0 13 4 24 8 24 5 0 14 12 20 26 9 19 9 30 0 47 -8 15 -13 18 -16 8 -2
-7 2 -17 9 -22 22 -13 -58 -91 -86 -83 -14 4 -16 3 -6 -4 11 -8 9 -17 -10 -51
-13 -22 -29 -41 -35 -41 -6 0 -19 -10 -27 -23 l-16 -22 0 28 c-1 21 3 27 17
25 13 -2 16 3 14 22 -5 34 -7 35 -34 7 -25 -25 -43 -56 -40 -69 1 -5 -3 -8 -9
-8 -7 0 -25 -13 -40 -30 -16 -16 -29 -26 -29 -21 0 5 7 17 16 25 14 15 14 17
0 22 -9 3 -23 1 -31 -6 -10 -9 -15 -9 -15 -1 0 6 5 11 10 11 19 0 11 59 -9 70
-27 14 -28 14 -25 -25 3 -33 -4 -43 -19 -28 -4 3 -2 12 4 19 14 17 -16 49 -56
58 -27 7 -28 9 -13 20 11 8 15 20 11 36 -4 17 -2 21 8 18 8 -3 13 -10 12 -16
-1 -5 4 -15 12 -22 7 -6 11 -18 8 -26 -3 -8 -1 -14 5 -14 16 0 23 31 11 46 -6
7 -8 22 -5 32 4 11 0 24 -9 32 -12 10 -15 10 -15 -4 0 -9 -7 -16 -16 -16 -26
0 -56 21 -50 35 3 8 0 15 -6 17 -6 2 12 28 40 56 29 29 52 58 52 65 0 6 12 20
26 30 25 19 25 19 31 -2 3 -12 8 -21 12 -21 10 0 51 48 51 60 0 13 17 13 25 0
10 -16 25 -12 19 5 -4 11 5 16 35 21 23 4 41 12 41 18 0 8 2 8 8 0 8 -13 62
-25 62 -14 0 12 45 17 69 8 13 -4 28 -5 34 -1 6 4 27 8 46 10 27 3 39 -1 53
-19 14 -18 20 -20 27 -9 5 7 15 11 22 9 9 -3 7 -10 -9 -26 -12 -12 -22 -27
-22 -33 0 -13 39 -2 61 17 23 20 32 4 12 -20 -17 -20 -17 -20 0 -7 9 7 17 10
17 5 0 -4 5 -3 12 4 19 19 30 14 18 -7 -7 -14 -7 -22 1 -27 6 -3 9 -15 6 -25
-3 -11 1 -19 12 -22 20 -4 63 22 55 35 -3 5 -11 5 -19 -2 -18 -15 -31 6 -15
25 6 8 8 20 4 27 -4 7 -4 10 1 6 10 -9 36 17 33 34 -2 8 5 12 21 10 21 -3 23
-1 17 23 -6 24 -4 27 13 22 11 -3 22 1 25 8 3 8 13 11 27 8 18 -5 20 -3 14 16
-7 22 9 30 21 10 5 -8 10 -6 16 5 5 9 14 14 19 10 5 -3 16 -1 23 5 10 9 15 8
20 -5 5 -12 9 -14 20 -5 7 6 21 9 30 5 10 -4 18 0 22 11 5 11 9 13 14 5 5 -8
11 -6 20 5 9 11 9 15 1 15 -7 0 -10 4 -6 9 3 5 16 -1 30 -15 13 -13 34 -24 47
-24 22 0 22 1 -7 25 -28 23 -29 24 -8 25 12 0 25 5 28 10 4 6 15 8 25 5 13 -4
17 -1 16 11 0 9 5 19 13 22 8 3 11 0 7 -7 -4 -6 -3 -11 3 -11 6 0 16 10 22 22
11 20 12 20 24 4 15 -20 28 -6 19 21 -4 13 -3 14 3 5 6 -7 14 -12 19 -11 5 1
11 0 14 -1 16 -7 80 -7 75 0 -3 4 -2 10 2 13 5 2 2 2 -5 1 -7 -2 -21 5 -31 15
-19 19 -19 19 13 14 19 -3 36 -1 40 5 4 7 15 6 32 -3 15 -7 33 -11 40 -8 20 7
6 25 -14 18 -11 -3 -22 3 -31 16 -12 21 -11 21 16 15 l28 -7 -34 34 c-26 27
-30 36 -17 39 14 3 14 6 2 30 -8 16 -10 30 -5 37 6 8 5 8 -3 1 -16 -13 -31
-13 -23 0 3 6 1 10 -4 10 -6 0 -11 13 -11 29 0 16 -7 35 -17 42 -15 13 -16 11
-9 -16 4 -16 10 -39 13 -49 4 -15 2 -18 -13 -12 -31 12 -36 12 -41 -3 -4 -9 0
-11 16 -6 24 7 29 -10 5 -19 -10 -4 -22 1 -30 11 -13 17 -14 17 -25 0 -10 -17
-12 -16 -39 3 -15 11 -37 20 -48 20 -28 0 -35 15 -21 41 7 13 7 19 1 15 -6 -4
-15 1 -20 10 -6 10 -12 13 -16 6 -3 -5 -15 -8 -25 -5 -10 3 -22 0 -25 -6 -10
-15 -28 -14 -24 2 2 7 -12 28 -31 46 -18 18 -30 35 -26 39 4 4 10 1 12 -5 3
-7 9 -13 14 -13 6 0 7 5 4 10 -11 17 7 11 21 -7 12 -16 13 -14 7 15 -4 26 -2
33 8 31 8 -2 29 1 47 5 22 5 38 4 48 -5 12 -10 15 -10 12 1 -2 8 12 18 36 25
29 8 35 13 23 18 -9 3 -25 3 -34 0 -16 -6 -16 -5 -4 11 13 15 13 19 1 26 -8 5
-11 12 -8 15 4 4 19 -5 35 -19 29 -27 53 -34 53 -15 0 6 8 8 18 5 13 -4 19 -1
19 9 0 19 -17 19 -42 1 -17 -12 -22 -12 -37 7 -14 16 -16 22 -6 28 7 5 -5 6
-27 3 -56 -8 -67 -12 -60 -24 3 -5 1 -18 -4 -27 -10 -17 -10 -17 -11 1 0 17
-1 17 -25 2 -36 -24 -124 -33 -136 -15 -6 10 -9 10 -9 2 0 -7 -10 -13 -22 -13
-19 0 -20 -2 -8 -10 10 -6 -7 -8 -52 -5 -38 2 -72 7 -78 10 -5 3 -10 1 -10 -5
0 -8 -10 -9 -30 -5 -19 4 -30 3 -30 -4 0 -6 -4 -11 -10 -11 -5 0 -10 7 -10 16
0 12 -4 14 -12 6 -18 -14 -74 -3 -93 18 -13 15 -22 17 -41 10 -17 -7 -24 -6
-25 3 -1 6 -2 17 -4 22 -1 6 -3 14 -3 19 -1 5 -8 3 -16 -3 -10 -8 -16 -9 -21
-1 -3 5 -18 8 -32 5 -26 -4 -67 16 -69 35 -1 6 -2 13 -3 16 -1 7 -31 -22 -31
-30 0 -3 7 -6 15 -6 8 0 15 -7 15 -15 0 -21 -12 -19 -34 6 -9 12 -25 19 -35
16 -19 -5 -36 10 -45 41 -4 12 -12 22 -18 22 -5 0 -8 -7 -4 -15 4 -11 -1 -15
-19 -15 -14 0 -25 4 -25 9 0 16 -38 20 -44 4 -7 -18 -26 -7 -26 16 0 14 -7 16
-35 13 -19 -2 -35 -9 -35 -14 0 -7 -5 -6 -13 1 -8 6 -17 8 -20 5 -7 -7 -31 15
-40 36 -4 11 -7 9 -12 -7 -9 -28 -21 -30 -28 -4 -9 34 105 118 145 106 14 -4
18 -3 11 2 -16 11 30 28 99 38 25 3 52 13 58 20 15 18 60 20 60 3 0 -9 4 -8
10 2 6 10 10 11 10 3 0 -7 4 -13 10 -13 5 0 7 6 4 14 -6 15 29 20 216 32 52 3
103 8 115 10 159 33 523 50 547 26 7 -7 21 -12 33 -12 34 0 174 -62 169 -75
-3 -6 2 -18 11 -25 14 -12 16 -12 13 1 -4 20 3 22 34 10 18 -7 26 -15 22 -25
-6 -16 54 -34 65 -20 3 5 20 9 36 10 52 2 125 23 125 36 0 5 14 14 30 19 17 6
30 14 30 19 0 4 9 10 20 13 25 6 27 27 3 27 -14 0 -12 5 10 24 18 15 38 23 57
22 17 -1 30 3 30 8 0 6 6 0 14 -14 13 -26 12 -40 -5 -40 -5 0 -9 7 -9 15 0 8
-6 12 -15 9 -8 -3 -13 -11 -12 -17 1 -7 -6 -11 -15 -9 -10 2 -18 -2 -18 -8 0
-5 7 -10 15 -10 9 0 24 -13 33 -30 23 -40 48 -50 28 -11 -16 30 -5 54 19 44
10 -3 12 2 8 19 l-5 23 20 -25 c15 -18 20 -36 17 -68 -2 -35 0 -42 13 -37 12
4 12 3 3 -9 -8 -10 -9 -16 -1 -21 5 -3 10 -1 10 4 0 6 5 11 11 11 5 0 9 -8 8
-17 -1 -10 1 -26 6 -36 10 -24 -1 -33 -22 -16 -10 9 -6 -5 13 -38 29 -53 47
-65 57 -39 4 9 -2 17 -14 21 -25 8 -24 18 6 51 14 15 25 33 25 40 0 8 5 14 10
14 6 0 10 -4 10 -10 0 -17 18 -11 23 8 4 14 6 13 12 -6 4 -13 13 -21 19 -19
13 4 14 71 2 106 -6 18 -5 22 5 17 8 -4 7 -2 -2 6 -18 15 -15 83 5 107 8 11 8
15 -1 18 -7 3 -13 13 -13 23 0 10 -11 38 -25 61 -14 24 -25 54 -25 66 0 12 -8
24 -17 26 -14 4 -13 5 4 6 20 1 21 4 12 28 -6 15 -14 30 -18 33 -5 3 -21 31
-36 63 -15 32 -30 56 -33 53 -8 -9 -33 15 -26 25 8 14 -3 11 -18 -5 -16 -15
-58 -4 -58 16 0 9 3 9 12 0 18 -18 39 -15 36 6 -3 20 -29 42 -41 35 -12 -8
-67 8 -67 19 0 6 -12 21 -27 34 -29 25 -53 31 -53 15 0 -5 6 -12 13 -14 10 -4
10 -6 0 -6 -14 -1 -59 40 -56 50 1 3 -7 11 -19 18 -18 11 -19 10 -13 -8 3 -12
2 -21 -2 -21 -15 0 -33 23 -33 43 0 10 -5 15 -11 12 -5 -4 -19 1 -29 10 -10 9
-24 14 -30 10 -6 -3 -9 -1 -8 7 2 9 -6 12 -24 10 -16 -2 -28 1 -28 7 0 5 -8
10 -17 10 -10 0 -39 5 -65 12 -35 9 -48 17 -48 31 0 10 -7 18 -16 18 -10 0
-14 -6 -11 -15 11 -26 -13 -27 -24 -1 -7 14 -16 23 -20 20 -5 -3 -9 0 -9 5 0
6 8 11 17 11 12 0 14 3 6 11 -15 15 -1 57 62 194 12 28 26 70 30 94 l7 44 -26
-19 c-14 -11 -26 -23 -26 -29 -1 -5 -5 -2 -8 8 -7 17 -9 16 -29 -3 -27 -25
-73 -23 -73 2 0 15 -5 17 -25 12 -17 -4 -32 -1 -44 10 -11 10 -33 19 -50 21
-17 2 -41 11 -53 20 -13 8 -30 15 -39 15 -9 0 -31 8 -50 17 -61 30 -94 23
-144 -31 -37 -41 -48 -47 -70 -42 -21 5 -25 3 -25 -14 0 -11 -7 -20 -15 -20
-8 0 -15 -4 -15 -9 0 -13 -34 -23 -54 -15 -9 3 -16 12 -16 20 0 12 -4 12 -20
2 -16 -10 -22 -10 -28 -1 -4 7 -27 14 -50 15 -23 2 -42 6 -42 11 0 4 -16 7
-36 7 -26 0 -37 5 -41 18 -3 11 -21 23 -47 30 -30 8 -46 19 -55 38 -10 24 -13
25 -24 11 -14 -20 -57 -12 -57 9 0 8 -7 14 -15 14 -8 0 -15 4 -15 8 0 10 -25
9 -57 -2 -13 -4 -30 -3 -40 2 -11 7 -23 6 -34 -1 -13 -8 -21 -7 -34 6 -21 22
-29 22 -17 0 10 -16 -2 -50 -22 -64 -4 -4 0 -18 9 -33 22 -33 10 -34 -20 -2
l-23 25 -6 -25 c-8 -29 -26 -32 -26 -4 0 11 -4 20 -10 20 -11 0 -13 -12 -11
-46 3 -30 -21 -45 -76 -47 -26 -1 -51 -6 -55 -12 -5 -6 -8 -5 -8 3 0 6 -7 12
-16 12 -8 0 -13 -4 -10 -8 2 -4 -8 -7 -22 -6 -22 1 -27 6 -27 27 0 14 -3 28
-7 32 -9 9 -15 -18 -22 -90 -4 -33 -9 -77 -12 -99 -4 -27 -3 -36 5 -32 7 5 11
-2 12 -16 0 -13 2 -35 3 -50 1 -16 -3 -27 -9 -27 -31 4 -38 -1 -24 -17 11 -14
10 -18 -6 -30 -18 -14 -18 -14 3 -14 12 0 22 -4 22 -10 0 -5 7 -10 15 -10 13
0 14 -4 5 -20 -6 -11 -15 -20 -21 -20 -6 0 -7 5 -4 10 3 5 1 10 -4 10 -6 0
-11 -4 -11 -8 0 -15 28 -47 42 -47 7 0 14 -8 16 -17 2 -13 -1 -16 -12 -12 -9
3 -16 2 -16 -4 0 -5 -19 -22 -42 -38 -24 -16 -45 -31 -48 -34 -3 -3 -20 -18
-38 -33 -19 -15 -30 -27 -26 -27 4 0 -1 -9 -11 -20 -10 -11 -24 -20 -32 -20
-7 0 -13 -4 -13 -10 0 -5 -5 -10 -12 -10 -18 0 -79 -50 -76 -63 3 -14 -31 -51
-56 -60 -10 -4 -20 -16 -23 -27 -3 -11 -9 -20 -14 -20 -5 0 -9 -6 -9 -13 0
-19 -35 -49 -45 -40 -4 5 -5 2 -1 -5 4 -6 -3 -30 -15 -52 -18 -32 -25 -37 -31
-25 -15 26 -54 -9 -62 -55 -5 -31 -11 -40 -26 -40 -10 0 -22 -4 -25 -10 -3 -5
-11 -10 -17 -10 -7 0 -2 9 10 20 12 11 26 20 31 20 11 0 27 88 17 97 -9 10
-17 -2 -20 -33 -2 -16 -4 -33 -5 -39 -1 -5 -10 1 -21 15 -15 20 -23 23 -37 14
-19 -11 -69 -12 -80 -1 -3 4 -12 2 -19 -4 -9 -7 -19 -7 -35 2 -21 11 -21 12
-5 24 16 12 16 14 -3 20 -27 8 -54 71 -48 110 5 37 -1 55 -18 55 -14 0 -19 10
-30 67 -10 48 -20 47 -23 -3 -2 -31 2 -48 15 -62 42 -42 46 -51 33 -67 -16
-20 -34 -19 -26 0 6 16 -56 85 -75 85 -5 0 -9 9 -9 21 0 13 5 19 13 16 8 -3
14 3 14 15 2 17 0 18 -15 6 -9 -7 -20 -17 -24 -23 -5 -6 -11 -6 -19 2 -9 9 -6
15 14 24 28 13 37 31 15 28 -31 -4 -48 2 -48 17 0 10 5 14 16 10 8 -3 13 -2 9
3 -3 5 -19 12 -36 16 -16 4 -28 12 -27 17 6 18 -42 59 -62 53 -23 -7 -34 19
-19 47 6 11 8 27 4 36 -5 14 -7 14 -16 2 -8 -11 -12 -12 -16 -2 -2 6 -9 12
-14 12 -6 0 -8 -4 -5 -8 2 -4 -4 -13 -15 -20 -18 -11 -19 -9 -20 35 l-2 48
-10 -47 c-6 -26 -16 -49 -24 -52 -8 -3 -12 -2 -8 3 8 14 -5 41 -20 41 -7 0
-16 6 -18 13 -5 12 -21 -2 -30 -28 -3 -5 -7 -7 -11 -4 -4 4 -1 18 5 32 7 15 8
34 4 44 -5 10 -7 24 -6 32 1 8 -2 10 -9 6 -9 -5 -10 -1 -5 15 6 20 5 22 -18
16 -14 -3 -29 -2 -32 4 -3 5 2 10 12 11 14 0 15 2 3 7 -21 10 -23 32 -3 32 16
1 16 2 3 13 -8 7 -16 30 -18 52 -3 34 -8 78 -11 94 -1 3 -5 1 -10 -5 -6 -5 -6
-27 -2 -51 9 -48 4 -53 -22 -23 -10 12 -22 18 -27 15 -6 -3 -10 -1 -10 4 0 6
5 11 10 11 6 0 10 5 10 10 0 6 -6 10 -14 10 -8 0 -17 8 -21 18 -6 16 -7 16
-16 0 -8 -15 -11 -15 -33 5 -22 19 -22 22 -8 33 17 12 18 11 -42 134 -8 18 -9
33 -1 54 7 22 7 30 -2 33 -7 3 -13 15 -13 28 0 13 -5 27 -12 31 -7 4 -8 3 -4
-4 4 -7 2 -12 -4 -12 -7 0 -9 7 -6 16 4 9 -1 27 -9 40 -14 22 -14 24 1 24 19
0 10 15 -9 15 -7 1 -10 7 -8 15 10 37 12 64 4 55 -12 -15 -43 -18 -43 -4 0 7
8 21 17 31 10 12 13 22 8 26 -6 4 -16 17 -23 30 -10 18 -10 26 0 42 7 11 16
20 20 20 5 0 8 16 8 35 0 22 6 37 17 44 16 8 15 11 -7 31 l-25 21 23 -6 c21
-6 23 -4 18 13 -4 11 -2 23 3 26 6 4 7 14 4 23 -5 12 -2 15 9 10 12 -4 14 -1
11 13 -3 10 0 21 6 24 7 4 8 1 5 -8 -9 -24 12 -19 42 9 l26 25 30 -22 c18 -12
33 -17 37 -11 9 14 44 25 35 11 -5 -8 -2 -9 9 -5 10 4 24 10 32 13 8 3 15 1
15 -5 0 -6 -6 -11 -14 -11 -22 0 -29 -19 -15 -36 9 -11 9 -18 1 -26 -18 -18
-14 -27 8 -21 29 8 56 -5 42 -19 -16 -16 -15 -25 4 -32 10 -4 25 5 41 24 18
22 31 29 45 24 10 -3 24 -1 31 4 21 16 45 21 43 9 -3 -25 -19 -39 -37 -34 -12
3 -19 0 -19 -8 0 -11 6 -12 30 -4 16 6 35 9 42 7 7 -3 17 4 23 15 11 22 25 25
119 31 34 1 62 8 64 14 2 7 8 12 13 12 6 0 7 -5 3 -11 -4 -8 0 -8 15 0 11 7
21 15 21 20 0 4 13 6 29 3 16 -2 38 1 49 7 14 7 23 8 27 1 3 -5 16 -10 28 -9
21 0 21 1 2 9 -17 7 -17 9 -2 9 9 1 17 4 17 9 0 4 12 8 28 9 70 6 131 21 146
36 19 18 31 23 22 8 -4 -5 10 -1 30 8 21 10 46 16 57 13 12 -3 18 -1 14 5 -7
10 51 48 60 39 3 -3 -6 -10 -21 -15 -14 -6 -26 -15 -26 -21 0 -6 4 -9 9 -5 5
3 22 7 38 9 53 7 88 18 100 33 6 8 17 16 25 17 30 6 68 26 68 36 0 5 6 10 14
10 16 0 66 56 66 74 0 6 7 22 16 35 12 16 19 20 27 12 7 -7 4 -16 -11 -29 -23
-20 -29 -42 -12 -42 6 0 10 3 10 8 0 4 7 16 15 26 12 16 17 17 31 5 14 -11 19
-10 34 9 21 26 30 28 30 8 0 -8 -9 -17 -19 -21 -19 -6 -36 -33 -26 -43 2 -3
11 0 18 7 8 6 22 9 31 5 19 -7 22 12 4 20 -9 3 -6 11 10 25 22 19 22 20 2 26
-12 4 -20 14 -18 23 5 28 28 25 41 -6 11 -27 14 -29 32 -16 16 12 17 14 2 14
-10 0 -17 8 -17 19 0 11 -8 22 -17 24 -16 4 -16 5 -1 6 9 0 23 -5 31 -13 8 -8
23 -12 34 -10 18 5 20 2 15 -22 -4 -25 -3 -27 19 -21 13 4 27 7 30 7 4 0 10
10 14 23 8 21 8 21 12 -5 2 -16 8 -28 13 -28 16 0 21 19 11 39 -9 16 -8 18 9
14 22 -6 28 12 8 20 -7 2 -11 7 -8 10 3 3 14 -1 25 -9 12 -9 16 -18 10 -22 -6
-4 -16 -19 -22 -34 -7 -16 -17 -28 -22 -28 -5 0 -12 -11 -15 -25 -4 -15 -11
-23 -17 -19 -8 4 -7 9 1 14 8 5 10 15 6 26 -6 14 -9 16 -15 5 -6 -10 -10 -10
-16 -2 -5 9 -10 9 -21 0 -8 -7 -32 -13 -52 -15 -20 -2 -40 -3 -44 -3 -4 -1 -5
-8 -2 -16 4 -8 1 -21 -4 -28 -8 -9 -3 -18 19 -32 31 -21 37 -45 17 -67 -19
-20 -40 -59 -35 -64 2 -2 12 5 22 16 10 11 23 20 29 20 6 0 6 -4 -1 -11 -6 -6
-9 -18 -6 -25 3 -9 -2 -14 -13 -14 -15 0 -13 -5 11 -30 15 -16 33 -27 38 -23
6 4 3 11 -6 18 -22 16 -10 27 14 12 22 -13 25 -33 7 -39 -9 -3 -8 -9 4 -21 22
-22 31 -21 25 3 -3 10 0 21 7 23 7 3 3 13 -11 29 l-23 24 21 23 21 23 -21 28
c-25 34 -26 41 -7 34 11 -4 13 1 10 18 -2 13 -2 17 2 11 11 -24 31 -14 26 12
-2 15 0 25 7 25 7 0 9 -5 5 -11 -4 -7 -1 -10 7 -7 8 3 13 15 12 27 -2 12 8 38
22 59 14 20 36 54 50 75 15 22 30 35 37 31 6 -4 8 -3 4 4 -10 17 11 60 33 67
18 5 19 9 8 26 -8 13 -9 22 -2 27 17 12 47 73 40 80 -3 3 -10 0 -15 -8 -7 -11
-10 -11 -10 -2 0 7 11 24 25 38 28 27 40 64 32 94 -3 11 -2 20 3 20 13 0 6
158 -7 171 -8 8 -9 18 -1 34 7 16 7 29 -2 45 -6 12 -9 24 -6 28 3 3 6 -1 6 -8
0 -9 6 -8 20 5 21 19 19 30 -7 30 -9 0 -20 11 -24 24 -7 19 -6 22 6 17 11 -4
15 1 15 18 0 13 7 29 15 36 10 9 15 9 15 1 0 -19 27 -12 33 8 3 14 1 18 -9 14
-18 -7 -18 8 -1 32 10 13 16 15 21 6 10 -15 27 -4 20 13 -3 8 -15 11 -31 8
l-26 -5 23 33 c13 19 19 30 12 26 -17 -10 -15 6 3 30 27 35 19 46 -30 40 -44
-4 -65 11 -27 20 11 4 17 14 16 35 -1 39 -10 46 -18 14 -4 -14 -12 -25 -20
-25 -7 0 -19 -6 -25 -14 -12 -14 -26 -11 -71 19 -8 5 -28 10 -44 10 -16 0 -31
6 -34 14 -3 9 0 12 9 9 9 -4 14 2 14 18 0 21 -1 22 -20 6 -11 -9 -25 -23 -32
-31 -10 -12 -15 -12 -28 -1 -14 12 -18 11 -26 -1 -5 -9 -9 -10 -9 -2 0 6 -9
10 -19 8 -14 -2 -21 4 -26 22 -4 16 -11 23 -21 19 -9 -4 -19 5 -28 27 -12 26
-15 28 -15 11 -1 -24 -31 -43 -31 -20 0 8 -9 16 -20 19 -11 3 -24 16 -29 28
l-8 24 -7 -23 c-8 -23 -8 -23 -28 -6 -17 16 -21 16 -29 4 -8 -11 -12 -12 -15
-3 -3 7 -12 9 -20 6 -8 -3 -14 0 -14 6 0 6 -10 11 -22 10 -19 0 -20 -2 -6 -7
13 -5 15 -11 8 -22 -7 -10 -12 -12 -17 -4 -10 15 -58 30 -49 15 9 -14 -37 10
-58 32 -19 19 -36 22 -36 7 0 -5 5 -10 10 -10 6 0 10 -7 10 -15 0 -8 5 -15 12
-15 19 0 -1 -14 -23 -15 -13 -1 -18 3 -15 12 3 8 0 13 -7 12 -19 -3 -67 12
-67 22 0 5 -32 9 -70 9 -48 0 -79 5 -95 16 -15 10 -32 13 -42 9 -17 -7 -16 -8
2 -15 19 -8 19 -9 -1 -9 -27 -1 -38 23 -18 39 21 18 17 28 -11 26 -16 0 -23
-6 -20 -13 2 -7 -2 -13 -9 -13 -7 0 -30 -13 -51 -30 -52 -41 -61 -38 -16 7 25
25 32 38 22 41 -7 2 -16 1 -20 -4 -9 -13 -71 -46 -71 -38 0 3 -6 1 -14 -5 -11
-9 -16 -9 -22 0 -4 7 1 18 11 26 17 12 17 13 2 13 -9 0 -17 -4 -17 -10 0 -5
-8 -10 -17 -10 -16 -1 -16 -2 1 -15 11 -8 17 -17 14 -20 -8 -9 -58 6 -58 16 0
5 -12 6 -26 3 -22 -6 -25 -4 -18 7 5 8 9 20 11 28 1 8 8 18 15 22 7 5 9 9 3 9
-5 0 -23 -9 -40 -20 -16 -11 -38 -20 -47 -20 -10 0 -18 -4 -18 -10 0 -9 -61
-40 -68 -35 -7 6 12 35 23 35 8 0 17 5 21 11 5 9 -1 10 -20 5 -18 -4 -25 -3
-21 4 3 5 1 10 -5 10 -7 0 -9 -8 -5 -19 4 -14 0 -21 -17 -27 -13 -3 -36 -15
-53 -26 l-30 -20 24 22 c13 11 31 25 40 30 9 5 13 11 9 15 -3 4 -18 -1 -32
-10 -14 -9 -31 -13 -37 -9 -8 4 -9 3 -5 -4 6 -11 -62 -47 -71 -38 -8 7 77 67
87 61 5 -3 10 1 10 11 0 12 -6 15 -22 11 -20 -5 -19 -3 8 22 17 16 38 31 45
33 8 3 11 9 7 13 -4 4 -15 0 -24 -9 -19 -20 -18 -21 -33 23 -11 33 -10 33 7
18 23 -21 32 -21 32 -1 0 8 -5 12 -10 9 -7 -4 -8 3 -4 22 9 37 14 44 25 38 5
-4 9 3 9 15 0 11 7 23 15 27 14 5 14 7 0 23 -14 16 -14 18 0 24 9 3 21 4 26 0
8 -5 13 9 10 29 0 4 6 7 14 7 9 0 18 7 21 15 5 12 9 13 20 4 28 -23 26 1 -2
25 -16 14 -23 26 -16 26 6 0 12 6 12 14 0 8 10 22 23 31 l22 16 -25 -3 c-14
-2 -29 -7 -33 -13 -4 -6 -7 -1 -6 10 2 34 0 38 -16 25 -12 -10 -15 -10 -15 1
0 8 9 20 19 26 11 7 30 35 42 62 13 27 27 47 31 45 4 -3 8 0 8 5 0 6 -7 11
-15 11 -8 0 -15 -4 -15 -8 0 -10 -35 -52 -43 -52 -2 0 -7 9 -10 20 -3 12 0 20
8 20 7 0 15 7 18 14 4 11 1 13 -10 9 -13 -5 -15 -2 -10 11 6 14 3 17 -9 12
-12 -5 -14 -1 -9 17 12 37 25 44 41 23 10 -14 14 -16 14 -5 0 29 -16 42 -38
30 -29 -16 -41 -13 -18 4 11 8 38 16 60 16 23 1 32 3 21 6 -24 6 -44 23 -27
23 7 0 12 5 12 11 0 5 -4 7 -10 4 -5 -3 -10 3 -10 14 0 12 -4 21 -10 21 -5 0
-10 5 -10 11 0 5 5 7 10 4 6 -3 10 1 10 9 0 9 8 16 18 16 11 0 27 9 37 20 15
17 16 20 3 20 -23 0 -41 27 -33 47 5 12 9 14 12 6 3 -9 10 -9 29 -1 26 12 30
23 14 33 -12 7 -12 16 -1 34 7 10 13 11 31 1 19 -10 21 -9 18 7 -2 10 -11 17
-20 17 -27 -2 -19 43 9 51 21 5 23 8 12 21 -10 12 -8 20 10 45 13 17 20 34 16
37 -6 7 -15 -3 -56 -60 -10 -13 -20 -20 -23 -17 -4 3 3 17 14 32 11 14 17 32
14 41 -5 13 -2 15 12 9 16 -5 17 -4 7 8 -14 18 3 45 32 50 11 3 20 11 20 19 1
24 15 41 33 39 33 -3 42 1 42 21 0 15 7 20 25 20 14 0 25 4 25 10 0 5 -8 7
-17 3 -16 -6 -16 -4 1 15 16 18 17 24 6 37 -12 14 -10 16 11 10 18 -4 27 0 37
16 10 15 11 24 3 28 -7 5 0 18 19 36 16 16 30 25 30 20 0 -5 5 -4 12 3 7 7 22
12 35 12 13 0 23 5 23 10 0 6 -4 10 -10 10 -5 0 -10 5 -10 10 0 10 48 3 62 -9
4 -3 -6 -15 -22 -26 -17 -11 -30 -24 -30 -29 0 -4 11 -1 25 8 13 9 44 16 67
16 57 0 94 10 77 21 -9 5 0 13 27 25 21 10 46 24 56 32 9 7 29 12 44 10 23 -2
17 -7 -39 -28 -37 -14 -67 -29 -67 -34 0 -4 10 -6 23 -2 12 3 29 6 38 6 9 0
32 11 51 23 19 13 49 27 67 30 18 4 52 23 76 43 24 20 49 33 56 29 7 -5 1 -14
-18 -27 -27 -19 -27 -19 -3 -13 14 4 30 12 37 17 6 5 33 11 60 13 84 7 127 16
168 35 22 10 57 25 79 34 21 9 36 19 33 22 -8 8 -76 -15 -114 -38 -32 -19
-129 -35 -119 -20 3 5 26 17 51 27 25 11 45 23 45 28 0 4 4 6 10 2 5 -3 26 4
47 15 l38 21 -52 -4 c-29 -3 -53 -1 -53 4 0 5 10 9 23 10 40 1 67 9 109 30 34
18 45 19 67 9 25 -11 25 -12 6 -26 -10 -8 -24 -14 -30 -14 -6 0 -12 -11 -13
-25 -1 -14 3 -25 8 -25 6 0 10 7 10 15 0 8 9 15 19 15 11 0 26 6 33 13 7 7 33
21 57 30 24 10 64 29 90 42 25 14 49 25 54 25 4 0 31 17 60 38 61 46 117 76
124 68 3 -3 19 6 35 19 16 14 37 25 46 25 8 0 25 9 37 20 14 13 40 21 84 25
69 5 81 10 81 30 0 8 5 17 12 21 8 5 9 2 5 -9 -4 -11 -1 -17 8 -17 7 0 16 8
19 18 3 9 4 2 2 -16 -3 -32 -2 -32 22 -16 19 12 26 13 32 4 6 -9 9 -9 12 1 4
12 7 12 21 0 10 -7 17 -9 17 -4 0 6 10 15 23 21 19 9 17 11 -22 11 -32 1 -42
4 -38 15 3 7 0 19 -6 25 -6 6 -7 11 -3 11 5 0 17 -9 26 -20 18 -21 18 -21 31
8 9 21 18 28 31 24 13 -3 17 -10 13 -21 -5 -13 -4 -14 6 -3 19 18 28 15 22 -8
-3 -11 -9 -20 -13 -20 -8 0 -7 -66 2 -75 8 -8 31 33 24 43 -5 9 22 37 39 39 5
1 11 7 14 14 2 7 -1 9 -9 4 -9 -5 -11 -4 -6 4 6 9 11 9 22 0 12 -10 10 -15
-12 -34 -20 -17 -25 -28 -19 -42 7 -17 8 -17 17 4 6 12 25 29 43 37 18 9 38
22 45 31 14 17 40 20 40 5 0 -5 -4 -10 -10 -10 -5 0 -19 -9 -31 -21 -11 -11
-27 -18 -34 -15 -7 2 -16 -2 -19 -10 -7 -17 -3 -17 52 -1 23 7 40 16 36 20 -4
4 -2 7 5 7 8 0 10 -8 5 -22 -6 -22 -5 -22 23 4 25 24 33 27 61 18 30 -8 32 -7
27 11 -7 21 10 25 35 9 13 -8 12 -10 -2 -10 -10 0 -18 -4 -18 -10 0 -5 9 -10
19 -10 11 0 23 5 26 10 3 6 10 10 16 10 5 0 9 -4 9 -10 0 -5 -6 -10 -14 -10
-7 0 -19 -7 -26 -15 -15 -18 3 -45 29 -44 10 0 7 4 -9 11 l-25 11 37 14 c37
15 37 15 20 42 -9 14 -20 29 -25 32 -5 3 -1 9 8 12 9 4 14 3 11 -2 -3 -5 6
-21 19 -35 30 -33 31 -43 5 -51 -19 -6 -18 -10 19 -45 36 -35 45 -39 88 -38
26 0 42 3 36 5 -7 3 -13 13 -13 23 0 10 -4 22 -10 25 -5 3 -10 0 -10 -9 0 -33
-46 -27 -73 10 -21 29 -17 39 20 49 15 3 32 14 39 23 7 9 16 14 20 9 4 -4 2
-13 -4 -19 -18 -18 -15 -49 3 -42 8 4 15 1 15 -6 0 -7 7 -10 15 -6 9 3 15 0
15 -9 0 -8 -4 -15 -10 -15 -5 0 -10 -5 -10 -11 0 -5 3 -8 8 -6 4 3 15 2 25 -2
17 -6 16 -8 -3 -29 -17 -17 -18 -22 -5 -22 8 0 15 4 15 9 0 5 10 11 23 14 12
3 33 9 46 13 20 6 23 4 18 -9 -4 -11 -2 -14 8 -11 8 3 22 -2 31 -11 9 -9 23
-14 30 -11 7 3 16 1 19 -4 4 -6 17 -10 30 -10 31 0 55 -10 55 -22 0 -6 -7 -7
-16 -4 -8 3 -12 2 -9 -4 3 -6 27 -10 53 -10 34 -1 42 -3 31 -10 -8 -5 -34 -8
-56 -7 -23 1 -39 -1 -36 -6 3 -4 -13 -6 -35 -2 -22 3 -43 1 -46 -4 -3 -5 15
-12 41 -15 55 -8 153 -5 158 5 6 9 65 -2 65 -13 0 -5 -14 -7 -32 -3 l-33 6 35
-16 c86 -40 106 -51 128 -72 14 -13 49 -35 78 -50 30 -15 54 -31 54 -35 0 -4
7 -5 16 -1 10 4 -5 17 -50 45 -36 21 -66 44 -66 50 0 5 -7 7 -16 4 -8 -3 -13
-2 -10 3 3 5 -1 14 -9 21 -8 7 -15 9 -15 5 0 -4 -7 -2 -15 5 -12 10 -13 16 -4
26 15 18 -11 20 -29 2 -9 -9 -12 -9 -12 3 0 7 11 19 24 25 19 9 25 8 35 -8 6
-10 21 -18 32 -18 16 0 19 -4 15 -17 -6 -14 -2 -12 17 5 28 26 40 28 33 5 -3
-10 -2 -23 2 -30 11 -18 49 -5 55 19 9 32 33 1 32 -41 0 -29 5 -38 28 -49 l28
-14 -22 -19 c-26 -22 -23 -23 20 -8 24 9 29 14 19 20 -9 6 -5 9 14 9 15 0 29
4 32 9 6 8 86 -2 116 -16 8 -3 22 -5 30 -4 10 2 9 -2 -5 -13 -11 -8 -26 -16
-32 -16 -14 0 -18 -19 -5 -21 8 -1 75 -6 107 -8 16 -1 17 -3 5 -11 -12 -7 -9
-13 13 -34 16 -15 25 -31 21 -38 -5 -8 -2 -9 10 -5 10 4 15 3 11 -3 -3 -6 -2
-10 3 -10 6 0 12 -7 16 -15 4 -13 2 -13 -14 -5 -10 5 -25 10 -32 10 -7 -1 -1
-8 15 -16 31 -17 33 -26 11 -60 -9 -13 -14 -27 -10 -31 3 -3 6 -1 6 5 0 7 7
12 15 12 8 0 15 7 15 15 0 20 7 19 36 -4 20 -16 22 -20 8 -25 -13 -5 -10 -11
17 -29 40 -27 52 -59 20 -50 -34 9 -25 -20 12 -38 17 -9 34 -24 35 -34 2 -9 0
-15 -5 -12 -4 3 -16 -1 -26 -8 -17 -12 -17 -14 5 -20 23 -7 58 -38 58 -51 0
-3 -12 -3 -26 0 -18 5 -24 3 -19 -5 4 -6 1 -15 -6 -20 -11 -7 -10 -9 4 -9 9 0
17 -5 17 -11 0 -6 -9 -8 -22 -3 -21 6 -22 5 -8 -12 8 -10 27 -31 43 -46 27
-24 27 -27 10 -38 -13 -8 -14 -13 -5 -16 6 -3 12 -15 12 -27 0 -14 3 -18 8
-10 5 8 14 5 29 -11 20 -21 21 -25 7 -45 -11 -14 -20 -19 -27 -13 -19 15 -47
10 -47 -7 0 -12 9 -16 33 -15 19 1 39 4 45 8 7 4 12 2 12 -4 0 -7 -9 -14 -20
-17 -21 -6 -22 -30 -1 -25 6 1 11 -2 11 -8 0 -5 -13 -10 -29 -10 -16 0 -37 -7
-45 -16 -9 -8 -19 -13 -24 -10 -4 2 -14 1 -22 -5 -13 -7 -12 -9 3 -9 21 0 22
-16 2 -36 -13 -14 -16 -14 -21 1 -4 9 -13 14 -21 11 -7 -3 -16 1 -19 9 -10 26
-21 16 -16 -15 3 -22 0 -30 -10 -30 -22 0 -29 12 -16 27 15 18 2 29 -16 14 -8
-7 -12 -19 -9 -27 3 -8 2 -22 -2 -31 -6 -17 -7 -17 -19 0 -12 16 -14 16 -27 0
-11 -13 -11 -17 -1 -20 6 -3 12 -11 12 -19 0 -8 4 -14 9 -14 16 0 -1 -40 -21
-51 -22 -12 -52 -4 -43 11 4 6 -1 7 -10 3 -13 -4 -14 -8 -4 -14 18 -11 14
-107 -6 -129 -15 -16 -15 -18 0 -24 9 -3 13 -2 10 4 -3 6 1 10 9 10 8 0 18 -4
21 -10 3 -5 2 -10 -3 -10 -6 0 -8 -9 -5 -20 7 -25 -2 -25 -29 0 -12 11 -24 17
-27 14 -3 -3 1 -9 8 -13 11 -7 10 -11 -5 -20 -18 -11 -18 -11 1 -26 17 -14 18
-17 5 -25 -12 -7 -12 -12 -2 -22 9 -9 12 -9 12 5 0 9 7 17 16 17 8 0 12 -4 9
-10 -3 -5 2 -10 12 -11 13 0 12 -3 -7 -10 -14 -6 -32 -8 -42 -6 -12 3 -15 0
-11 -11 5 -11 2 -14 -10 -9 -23 9 -22 -5 2 -25 10 -8 20 -21 22 -27 2 -6 20
-13 39 -17 l35 -6 -38 27 c-27 19 -36 30 -29 37 6 6 18 7 29 3 10 -5 23 -9 28
-9 6 -1 9 -10 7 -20 -2 -11 1 -15 7 -11 7 3 11 -2 11 -14 0 -11 5 -23 10 -26
6 -3 10 -12 10 -18 0 -9 -2 -9 -8 0 -10 15 -62 28 -62 15 0 -6 5 -12 12 -14 8
-3 6 -7 -4 -11 -10 -3 -27 2 -40 12 -13 10 -32 20 -43 23 -13 2 -19 11 -18 25
1 12 -4 27 -12 33 -15 12 -20 4 -16 -22 1 -11 -17 -10 -23 1 -3 5 -22 12 -42
16 -20 3 -45 12 -55 18 -23 14 -36 2 -19 -18 8 -10 22 -14 34 -11 20 5 20 4 3
-9 -18 -13 -17 -14 10 -30 l28 -16 -35 7 c-19 3 -40 13 -47 21 -6 8 -20 13
-30 11 -16 -3 -16 -5 5 -26 29 -29 16 -28 -29 3 -36 24 -65 24 -32 0 15 -11
15 -15 4 -29 -15 -17 -36 -22 -26 -6 3 6 -4 10 -17 10 -18 0 -20 2 -8 10 11 7
8 11 -14 20 -20 7 -32 8 -40 0 -7 -7 -3 -10 12 -10 12 0 22 -4 22 -9 0 -24
-101 -28 -139 -5 -18 11 -35 14 -47 9 -16 -6 -12 -10 20 -20 47 -14 66 -42 20
-30 -57 15 -184 4 -184 -16 0 -5 5 -9 10 -9 6 0 10 -4 10 -10 0 -16 -33 -12
-78 10 -42 20 -94 28 -76 11 5 -5 18 -11 28 -13 11 -1 19 -7 18 -13 -3 -16
-46 -11 -66 8 -20 17 -36 22 -36 11 0 -4 8 -13 18 -20 15 -12 13 -13 -18 -14
-19 0 -46 -7 -60 -15 -14 -8 -32 -14 -40 -14 -10 0 -8 3 5 9 16 7 11 9 -20 9
-28 1 -36 -2 -25 -9 26 -16 2 -23 -42 -12 -34 9 -46 8 -59 -3 -8 -8 -22 -15
-31 -15 -8 0 -27 -11 -42 -25 -34 -32 -86 -35 -86 -5 0 24 -11 25 -50 5 -31
-16 -44 -8 -34 22 3 10 -4 2 -16 -17 -12 -19 -27 -38 -32 -41 -5 -3 -13 -19
-18 -35 -8 -23 -9 -19 -4 21 3 28 10 55 16 62 5 7 8 18 5 25 -4 8 -8 4 -13
-10 -3 -13 -12 -21 -18 -19 -6 2 -25 -24 -42 -57 -17 -34 -36 -60 -43 -58 -6
1 -18 -12 -26 -30 -14 -32 -19 -26 -18 20 1 26 -14 10 -23 -25 -6 -27 -14 -38
-27 -37 -9 1 -17 -4 -17 -12 0 -18 -16 -18 -23 0 -3 8 1 17 9 20 11 4 12 10 4
26 -5 11 -15 29 -20 40 -6 12 -8 26 -4 33 4 7 -2 4 -13 -6 -20 -17 -21 -17
-27 8 -4 14 -11 25 -17 25 -8 0 -7 -5 1 -15 10 -12 10 -19 2 -27 -7 -7 -8 -17
-3 -27 13 -24 12 -111 0 -111 -6 0 -13 9 -16 20 -3 11 -9 18 -13 15 -4 -3 -10
2 -14 10 -3 8 -10 15 -16 15 -17 0 -11 -24 10 -43 22 -18 25 -33 11 -41 -5 -3
-12 5 -15 19 -4 14 -14 25 -22 25 -10 0 -14 -6 -10 -15 4 -13 2 -14 -14 -5
-26 14 -26 0 0 -28 22 -24 25 -38 10 -47 -6 -4 -9 -1 -8 7 2 9 -10 14 -35 16
l-38 3 16 -25 c10 -15 13 -26 7 -26 -6 0 -16 9 -22 20 -13 24 -30 17 -30 -12
0 -12 3 -18 7 -15 7 8 43 -21 43 -36 0 -5 -7 -6 -16 -3 -14 5 -15 4 -4 -9 10
-12 10 -15 -4 -15 -9 0 -26 12 -39 26 -12 15 -28 33 -36 41 -11 12 -11 16 5
28 18 13 17 14 -14 15 -29 0 -32 -3 -27 -20 5 -15 3 -18 -9 -14 -8 3 -17 13
-19 22 -4 15 -5 15 -6 0 -1 -20 -16 -24 -26 -8 -3 6 -11 10 -17 10 -7 0 -7 -5
1 -14 6 -7 9 -20 6 -28 -5 -12 3 -15 32 -15 62 -1 96 -18 99 -50 2 -30 5 -34
14 -28 6 4 7 11 3 18 -3 6 10 -2 30 -17 35 -27 49 -56 26 -56 -5 0 -8 -4 -5
-9 3 -5 15 -7 26 -4 22 6 25 -3 10 -27 -8 -12 -13 -13 -30 -2 -17 10 -20 10
-20 -4 0 -12 9 -15 37 -12 30 2 40 -2 56 -25 20 -26 20 -27 3 -40 -17 -12 -17
-14 -2 -20 9 -4 16 -13 16 -22 0 -8 4 -15 9 -15 5 0 8 -16 8 -35 -1 -19 -5
-35 -9 -35 -4 0 -8 -16 -8 -36 0 -21 4 -33 10 -29 6 3 10 -3 10 -14 0 -12 6
-21 13 -21 7 0 8 -3 2 -8 -14 -10 -17 -32 -5 -32 6 0 10 -7 10 -15 0 -19 14
-19 29 -1 7 8 31 14 64 13 28 0 73 3 99 6 27 4 50 2 53 -3 3 -6 0 -10 -7 -11
-7 0 -2 -5 12 -10 19 -8 27 -7 35 5 7 9 21 12 38 9 15 -3 34 0 42 7 9 7 19 10
22 6 4 -4 3 -10 -3 -14 -6 -4 -10 -18 -9 -31 1 -16 -8 -33 -24 -48 l-26 -23
35 7 c40 8 63 8 103 -2 21 -6 27 -4 27 9 0 9 12 21 26 26 32 13 47 13 39 1 -3
-5 0 -13 6 -17 8 -5 4 -13 -12 -26 l-24 -20 24 6 c21 4 23 2 17 -25 -4 -22 -2
-29 9 -29 8 0 15 -4 15 -10 0 -14 -13 -12 -36 5 -20 15 -60 20 -67 8 -2 -5 -2
-2 -1 5 4 15 -8 15 -57 0 -47 -14 -52 -30 -6 -21 31 6 32 6 14 -14 -20 -23
-14 -33 22 -33 23 -1 24 -2 8 -11 -9 -6 -27 -7 -38 -4 -17 6 -20 3 -17 -12 2
-10 11 -16 19 -14 54 15 67 13 71 -10 2 -13 9 -23 16 -21 6 1 18 3 25 5 7 1
11 -7 10 -23 -2 -20 5 -28 35 -42 l37 -17 -27 24 c-49 43 -28 61 31 28 34 -20
40 -33 14 -33 -13 0 -14 -3 -5 -12 9 -9 15 -9 23 -1 10 10 34 7 116 -18 18 -6
37 -8 43 -4 5 3 28 0 51 -6 34 -11 42 -10 49 1 7 11 11 8 19 -13 12 -32 36
-38 26 -6 -6 17 -3 20 12 17 10 -2 17 -9 16 -15 -2 -8 7 -9 28 -3 18 6 64 5
114 -1 51 -6 96 -7 117 -1 18 5 57 10 87 11 30 1 63 7 74 12 10 6 21 8 24 6 3
-3 21 4 41 15 42 24 137 47 197 48 35 1 38 2 23 14 -10 7 -18 18 -18 25 0 6
-4 11 -10 11 -5 0 -10 5 -10 10 0 6 11 10 24 10 31 0 56 28 35 41 -11 7 -11 9
4 9 10 0 15 5 12 10 -4 6 5 10 21 10 25 0 26 2 20 34 -6 33 -5 35 19 32 14 -1
28 -6 32 -9 3 -4 14 -7 24 -7 23 0 19 33 -6 44 -19 9 -19 9 -1 13 10 3 23 0
28 -5 6 -6 17 -8 24 -5 11 4 12 9 3 19 -14 18 -11 17 41 -1 49 -17 100 -20
100 -5 0 6 -7 10 -15 10 -9 0 -12 6 -9 15 4 8 11 15 18 15 6 0 19 14 29 32 14
24 15 33 5 39 -7 4 -9 11 -5 16 5 4 12 1 18 -7 7 -12 11 -13 18 -2 7 11 9 11
14 -2 8 -19 27 -21 27 -3 0 7 9 19 19 27 11 7 18 17 16 20 -7 12 30 7 38 -4 5
-8 9 -8 15 0 17 26 116 37 150 17 30 -18 28 -2 -3 21 -28 21 -34 39 -10 30 11
-5 13 -2 9 10 -3 9 -12 16 -20 16 -8 0 -14 9 -14 21 0 11 -4 17 -10 14 -5 -3
-10 -1 -10 5 0 6 15 8 43 4 l42 -5 -40 20 c-22 10 -34 20 -26 20 11 1 11 5 -2
19 -21 23 -22 39 -1 21 13 -11 14 -9 8 17 -9 39 -13 44 -30 44 -18 0 -18 10 2
38 12 18 13 26 4 37 -9 11 -9 15 -1 15 16 0 13 40 -4 46 -12 5 -10 10 8 25 19
16 20 18 4 19 -10 0 -15 5 -12 10 5 8 11 7 21 -1 17 -14 19 -12 28 17 5 15 2
24 -9 28 -9 3 -13 10 -10 16 3 6 -1 17 -10 26 -9 9 -17 15 -18 13 -2 -2 -9
-13 -17 -23 -14 -17 -13 -18 8 -12 19 6 22 4 20 -17 -2 -22 -3 -23 -30 -10
-27 14 -27 15 -13 50 18 44 19 40 -5 46 -29 7 -24 20 15 39 30 15 35 16 35 2
0 -8 -10 -19 -22 -24 -18 -7 -19 -9 -5 -9 9 -1 17 -5 17 -10 0 -5 7 -12 16
-15 12 -4 15 -2 11 9 -9 21 14 31 25 10 8 -14 12 -15 19 -4 7 11 11 10 23 -6
9 -11 15 -24 15 -30 0 -5 -3 -4 -6 3 -2 6 -8 12 -13 12 -10 0 0 -94 11 -98 13
-5 11 -112 -2 -112 -5 0 -7 -4 -4 -10 11 -17 24 -11 39 18 l15 27 -2 -43 c-1
-26 4 -46 12 -51 9 -6 10 -11 2 -15 -6 -4 -15 -4 -21 -1 -6 3 -10 -5 -10 -18
0 -21 4 -24 22 -19 14 3 19 1 14 -6 -4 -6 -2 -21 5 -33 8 -16 8 -23 -1 -29 -9
-5 -9 -9 -1 -14 6 -4 11 -16 11 -27 0 -11 5 -17 10 -14 6 3 10 -3 10 -14 0
-10 6 -22 13 -24 9 -4 9 -7 0 -14 -8 -5 -9 -14 -3 -23 5 -8 7 -25 3 -38 -3
-13 -1 -33 5 -45 6 -12 13 -39 17 -59 3 -21 10 -38 14 -38 5 0 9 -28 9 -62 1
-33 5 -64 10 -67 12 -9 25 -43 23 -62 -1 -9 4 -29 10 -45 14 -31 19 -63 23
-134 2 -25 3 -55 4 -67 1 -13 8 -23 16 -23 9 0 12 -7 9 -21 -4 -12 0 -25 8
-30 12 -8 11 -9 -1 -7 -9 2 -17 1 -18 -2 -8 -13 26 -88 52 -117 17 -20 17 -23
3 -23 -8 0 -18 8 -20 18 -4 14 -6 13 -12 -6 -6 -19 -10 -20 -23 -10 -13 11
-14 9 -8 -17 5 -21 4 -26 -3 -15 -12 18 -26 7 -15 -12 4 -7 7 -30 5 -51 -2
-26 3 -45 15 -58 16 -18 16 -20 0 -37 -14 -17 -15 -22 -3 -45 8 -15 17 -24 20
-20 10 9 7 -18 -3 -42 -7 -15 -9 -16 -9 -4 -1 9 -8 22 -16 29 -12 10 -15 9
-15 -7 0 -11 6 -41 14 -66 12 -41 12 -46 -2 -52 -12 -4 -13 -8 -4 -13 8 -6 6
-13 -9 -26 -17 -14 -19 -20 -7 -33 12 -15 13 -15 16 1 2 9 7 14 12 11 11 -7
-18 -65 -33 -65 -7 0 -4 -7 6 -14 19 -15 13 -46 -9 -46 -8 0 -14 -4 -14 -9 0
-5 -3 -18 -7 -28 -3 -10 -3 -15 2 -11 4 4 14 1 21 -7 15 -15 19 -41 7 -47 -5
-1 -20 -22 -35 -45 -20 -30 -23 -41 -12 -36 14 5 15 3 5 -15 -10 -18 -9 -22 3
-22 18 0 28 -15 30 -43 1 -11 7 -22 14 -25 7 -2 10 2 6 11 -3 8 2 17 11 21 10
3 14 2 9 -5 -3 -6 4 -21 17 -35 19 -20 20 -24 6 -24 -19 0 -23 -15 -7 -25 7
-4 5 -14 -4 -27 -19 -27 -10 -51 14 -38 9 5 20 7 23 4 3 -3 10 3 16 14 6 11 8
22 5 25 -3 3 3 18 14 34 12 16 23 50 25 79 2 28 9 59 15 70 19 36 27 125 11
134 -11 7 -10 10 4 16 9 3 17 15 17 26 0 18 -1 18 -17 3 -16 -16 -17 -16 -25
6 -5 13 -7 32 -4 42 3 13 0 17 -10 13 -17 -7 -18 -2 -2 24 11 17 9 22 -10 35
-12 9 -22 22 -22 28 0 7 7 3 15 -7 8 -11 17 -17 21 -14 10 11 7 117 -4 130
-15 18 -17 49 -5 78 10 25 10 25 19 -10 4 -19 7 -38 6 -42 -1 -4 3 -20 10 -35
6 -15 10 -35 9 -43 -1 -12 0 -12 7 -2 5 8 12 12 16 10 4 -1 14 8 21 22 8 14
14 19 15 12 0 -7 14 -27 31 -45 16 -18 39 -51 51 -74 11 -24 25 -43 32 -43 6
0 25 -7 41 -16 19 -11 55 -16 100 -16 113 0 109 0 94 18 -13 16 -15 72 -4 109
4 15 -5 36 -31 72 -51 69 -89 93 -146 93 -81 0 -85 28 -26 166 20 45 38 94 42
108 4 15 31 77 61 139 29 62 57 124 60 140 4 15 15 28 24 29 54 5 71 4 71 -3
0 -5 5 -9 11 -9 6 0 40 -14 76 -31 50 -24 73 -29 99 -25 29 6 38 2 64 -24 16
-17 30 -28 30 -24 0 4 9 -1 20 -11 19 -18 20 -17 20 3 0 13 6 22 15 22 16 0
20 16 6 24 -4 3 -11 20 -15 37 -3 17 -15 44 -26 59 -12 16 -30 55 -40 86 -23
67 -59 131 -88 157 -11 11 -39 23 -61 28 -34 7 -48 6 -79 -10 -46 -24 -70 -60
-123 -181 -22 -52 -47 -108 -54 -125 -12 -28 -20 -56 -46 -160 -13 -50 -61
-155 -71 -155 -4 0 -8 -5 -8 -11 0 -7 -10 -20 -22 -31 -13 -11 -23 -23 -23
-28 0 -5 -11 -23 -25 -42 -13 -18 -25 -37 -26 -43 0 -5 -2 -14 -4 -20 -1 -5
-2 -23 -1 -40 1 -28 0 -28 -9 -7 -9 21 -21 31 -19 15 1 -5 1 -14 0 -22 -2 -22
-30 19 -31 44 -1 19 -1 19 -14 2 -12 -15 -14 -14 -20 20 -3 21 -6 57 -6 79 0
23 -6 47 -14 53 -21 18 -29 84 -27 242 1 123 5 152 21 184 13 26 16 42 10 50
-9 11 -4 25 10 25 4 0 12 -11 18 -25 10 -22 14 -23 42 -14 18 7 32 20 34 32 7
33 25 201 32 302 6 88 33 199 59 240 12 20 39 115 50 177 3 17 13 44 21 60 19
36 23 217 7 330 -7 57 -7 93 1 135 11 56 13 58 46 61 44 5 88 36 96 70 6 24
50 119 90 194 8 14 14 38 14 51 0 14 5 29 12 33 8 5 9 0 6 -14 -4 -12 -2 -22
3 -22 5 0 9 14 9 30 0 18 -5 30 -13 30 -19 0 -67 111 -67 154 0 39 25 60 40
35 7 -11 10 -10 15 3 9 22 35 31 51 17 9 -7 14 -8 14 -1 0 17 69 55 87 48 56
-22 223 134 223 208 0 14 6 31 31 91 24 58 40 159 37 238 -3 76 -1 88 17 101
11 9 26 16 33 16 7 0 44 24 82 53 89 67 98 91 80 232 -11 89 -18 179 -20 241
0 12 -33 55 -75 100 -116 122 -146 156 -141 161 2 3 -33 44 -80 91 -77 80 -99
112 -75 112 5 0 16 3 24 6 19 7 41 -31 39 -66 0 -17 9 -33 29 -48 16 -13 29
-20 29 -15 0 23 -42 112 -66 142 -16 18 -41 48 -56 66 -31 37 -34 45 -14 45
22 0 68 -41 62 -56 -5 -12 7 -26 87 -102 19 -17 49 -59 66 -92 18 -33 36 -60
41 -60 8 0 -61 141 -103 210 -34 55 -135 177 -168 202 -16 13 -71 62 -121 111
-50 48 -103 90 -117 93 -42 9 -71 23 -71 34 0 17 43 11 79 -11 18 -11 36 -18
38 -15 8 7 -25 56 -37 56 -14 0 -12 51 3 78 7 12 37 47 66 77 34 34 48 55 38
55 -9 0 -26 -11 -39 -24 -43 -46 -121 -105 -131 -99 -5 3 -4 9 3 13 19 12 4
40 -21 40 -19 0 -21 4 -15 30 5 28 3 30 -24 30 -17 0 -30 5 -30 11 0 5 4 8 9
5 17 -11 32 23 30 71 -4 95 50 213 97 213 7 0 14 5 14 11 0 5 4 8 10 4 5 -3 7
-12 3 -20 -3 -8 -1 -15 4 -15 16 0 63 48 63 65 0 8 5 15 10 15 6 0 8 -11 4
-27 -10 -44 -10 -47 6 -50 19 -4 62 83 65 135 5 70 -19 107 -109 165 -45 28
-98 61 -119 71 -20 11 -37 23 -37 28 0 4 -7 8 -15 8 -8 0 -15 9 -15 19 0 24
-86 127 -136 164 -88 63 -115 79 -244 144 -90 45 -151 83 -182 113 -34 33 -48
41 -48 29 0 -9 -9 -27 -21 -40 -11 -13 -18 -18 -14 -11 7 14 8 96 1 159 -5 36
-3 41 11 36 10 -4 14 -2 10 4 -4 6 -2 46 4 89 6 42 8 87 5 99 -7 27 -41 38
-57 19 -17 -20 -72 -17 -102 6 -14 11 -39 20 -57 20 -17 0 -45 7 -63 17 -88
45 -260 74 -390 66 -81 -5 -100 -3 -115 10 -23 21 -95 40 -154 41 -27 0 -48 4
-48 7 0 16 -109 32 -252 36 -114 4 -158 2 -158 -6 0 -8 -5 -9 -19 -1 -31 16
-72 13 -65 -5 8 -20 -39 -20 -59 0 -13 12 -154 14 -1030 15 l-1016 0 -15 -22
c-9 -12 -16 -35 -16 -50 0 -16 -4 -28 -10 -28 -5 0 -10 -8 -11 -17 0 -12 -2
-13 -6 -5 -4 10 -8 10 -21 0 -8 -7 -18 -12 -21 -10 -3 1 -17 -15 -31 -35 -35
-51 -70 -55 -110 -13 l-30 32 6 -33 c3 -19 7 -40 10 -46 2 -7 0 -13 -5 -13
-11 0 -21 36 -21 81 0 22 -10 51 -25 73 -14 20 -28 48 -31 61 -5 22 -11 25
-53 25 -31 0 -41 -3 -32 -9 11 -7 12 -13 3 -23 -6 -8 -13 -27 -16 -43 -3 -17
-12 -35 -20 -41 -12 -8 -10 -15 15 -42 43 -46 35 -52 -10 -8 -21 20 -43 55
-50 75 -6 21 -18 44 -26 51 -8 7 -15 19 -15 26 0 12 -40 14 -233 13 l-234 -1
5 -24 c2 -14 0 -24 -7 -24 -6 0 -11 8 -11 17 0 13 -3 14 -12 5 -8 -8 -17 -6
-35 8 -20 16 -40 18 -138 17 -88 0 -115 -4 -115 -14 0 -17 -15 -17 -30 2 -8
10 -31 15 -71 15 l-59 0 16 -26 17 -25 -44 3 c-34 2 -46 8 -54 26 -9 20 -16
22 -100 22 -83 -1 -88 -2 -65 -15 14 -8 32 -14 41 -15 28 0 52 -25 45 -47 -11
-36 -86 -53 -86 -20 0 6 -18 -8 -40 -30 -22 -23 -48 -46 -57 -52 -16 -9 -16
-10 4 -11 12 0 27 -9 33 -19 10 -19 9 -27 -6 -66 -4 -11 -6 -28 -5 -39 2 -11
-2 -16 -8 -11 -6 3 -14 -2 -18 -12 -4 -10 -13 -24 -21 -32 -9 -9 -12 -29 -10
-53 3 -33 0 -40 -18 -44 -22 -6 -86 28 -128 68 -12 11 -29 24 -40 30 -20 11
-17 2 12 -37 9 -11 -11 6 -42 38 -44 44 -57 63 -53 78 6 24 -5 49 -45 96 -15
18 -34 55 -42 82 -36 123 -72 148 -63 44z m663 -78 c-3 -10 1 -15 12 -16 9 -1
22 -2 27 -4 6 -1 15 -3 22 -3 20 -3 4 -28 -25 -42 -40 -18 -110 -38 -126 -36
-25 4 -45 27 -41 49 7 32 27 47 70 52 21 3 41 8 44 10 10 11 23 4 17 -10z
m-120 -143 c-8 -27 18 -55 41 -44 10 6 44 17 75 26 32 9 60 21 63 26 4 6 11
10 17 10 6 0 -1 -9 -15 -21 -15 -11 -34 -36 -43 -55 -9 -19 -22 -34 -29 -34
-17 0 -30 -33 -15 -38 8 -3 7 -8 -1 -18 -9 -11 -8 -14 4 -14 29 0 35 -23 16
-65 -10 -22 -19 -34 -19 -27 0 14 -20 17 -20 3 0 -5 7 -16 15 -25 18 -18 19
-27 3 -23 -6 1 -14 -6 -16 -17 -2 -11 0 -16 7 -12 7 5 11 -2 11 -18 0 -23 -2
-24 -30 -15 -16 6 -30 15 -30 21 0 5 5 6 11 2 7 -4 10 -1 7 6 -2 8 -33 24 -69
37 -35 14 -65 25 -66 26 -1 2 -4 31 -8 65 -5 53 -2 67 14 88 11 14 23 39 26
57 4 18 14 49 23 70 13 29 18 34 25 22 4 -8 6 -23 3 -33z m6026 -876 c10 -7
20 -30 23 -52 3 -21 8 -45 11 -53 6 -18 -45 -110 -68 -122 -10 -5 -18 -16 -18
-24 0 -8 -7 -15 -15 -15 -8 0 -15 6 -15 14 0 8 7 21 15 30 8 8 15 22 15 31 0
8 -7 18 -15 21 -18 7 -20 51 -3 56 14 5 20 68 7 68 -5 0 -9 -6 -9 -13 0 -8 -9
-24 -20 -37 -11 -13 -20 -27 -20 -33 0 -5 -6 -7 -14 -4 -8 3 -17 1 -19 -6 -6
-17 -16 -5 -19 24 -2 18 1 23 15 21 11 -2 17 4 18 15 4 80 3 78 34 84 49 11
79 9 97 -5z m-7157 -136 c10 -12 35 -122 35 -153 0 -11 -42 15 -62 38 -17 20
-17 20 -18 -2 0 -13 3 -23 8 -23 4 0 12 -10 17 -22 6 -13 16 -22 23 -20 8 1
12 -13 12 -43 0 -38 -3 -45 -20 -45 -40 0 -47 44 -40 240 1 36 4 74 7 85 5 17
7 16 16 -10 5 -16 15 -37 22 -45z m7245 -1382 c0 -4 9 -8 21 -8 16 0 19 4 14
20 -4 11 -2 20 4 20 6 0 11 -6 11 -14 0 -8 9 -18 20 -21 11 -4 32 -18 45 -31
27 -27 34 -44 10 -24 -22 18 -44 -3 -26 -24 7 -8 10 -20 6 -27 -10 -15 -82 -5
-104 15 -10 9 -24 16 -32 16 -21 0 -55 41 -62 75 l-7 30 16 -29 c15 -27 17
-28 26 -11 8 13 7 20 -6 27 -9 5 -14 13 -11 18 6 10 75 -19 75 -32z m97 -154
c13 -3 20 -10 17 -15 -3 -5 0 -9 5 -9 6 0 11 -5 11 -11 0 -6 6 -17 14 -25 12
-11 20 -12 40 -3 14 7 23 16 20 20 -3 5 -1 9 4 9 12 0 82 -77 82 -90 0 -6 7
-10 16 -10 15 0 15 2 0 24 -9 14 -13 33 -10 43 4 14 3 15 -4 4 -5 -7 -12 -9
-15 -5 -3 5 1 15 8 21 11 10 17 9 31 -4 11 -11 13 -18 5 -21 -6 -2 -11 -8 -11
-13 0 -4 7 -6 15 -3 12 5 14 -6 12 -60 -2 -53 1 -67 14 -71 13 -4 14 -14 9
-50 -8 -54 11 -62 38 -15 9 16 27 32 39 35 12 3 25 14 28 25 19 61 20 -52 2
-246 -5 -56 -34 -85 -78 -80 -26 2 -41 14 -70 51 -20 27 -35 54 -32 62 3 7 -2
15 -10 19 -9 3 -23 17 -32 31 -16 24 -16 24 5 13 32 -17 43 -8 20 17 -26 28
-25 48 2 67 20 14 20 16 4 22 -11 4 -22 1 -27 -7 -6 -10 -9 -10 -9 -1 0 6 -4
12 -10 12 -14 0 -12 -28 3 -33 6 -2 9 -8 4 -12 -10 -12 -77 53 -93 92 -8 17
-18 34 -24 38 -15 10 -12 35 5 35 8 0 15 4 15 9 0 16 -30 21 -50 9 -16 -11
-22 -9 -35 7 -22 29 -14 48 23 57 36 10 39 34 3 32 -11 0 -21 3 -21 8 0 4 -13
8 -29 8 -16 0 -35 7 -42 16 -12 14 -8 16 36 10 28 -3 60 -8 72 -12z m-85 -382
c24 -26 56 -67 71 -92 66 -114 106 -322 71 -375 -15 -23 -15 -28 -3 -36 9 -6
18 -4 25 6 22 30 34 4 15 -33 -5 -9 -24 -48 -41 -85 -18 -37 -50 -90 -71 -117
-21 -27 -39 -58 -39 -69 0 -20 -32 -37 -50 -26 -16 10 -50 86 -50 112 0 13 -6
34 -14 46 -19 31 -30 91 -28 162 1 33 -5 83 -12 110 l-15 50 0 -86 c-1 -96
-14 -133 -54 -154 -25 -13 -26 -11 -56 50 -17 35 -42 74 -56 87 -14 12 -25 31
-25 41 0 10 -5 27 -10 38 -6 10 -8 19 -5 19 8 0 35 -27 35 -35 0 -11 112 -115
124 -115 6 0 -4 14 -21 30 -18 16 -33 34 -33 40 0 14 -101 110 -116 110 -7 0
-29 16 -49 34 -37 36 -41 65 -11 91 6 6 16 20 23 31 9 17 8 24 -4 37 -14 13
-14 18 -2 30 8 7 20 12 27 9 15 -5 16 10 0 26 -19 19 10 45 44 38 28 -5 40 8
16 17 -27 9 10 28 48 25 30 -2 40 -8 42 -23 2 -12 19 -27 41 -37 53 -25 61
-22 24 8 -18 14 -33 32 -33 39 0 7 -8 16 -17 19 -10 3 8 3 40 0 32 -2 72 -11
87 -19 39 -20 43 -19 25 8 -14 22 -12 37 5 37 4 0 27 -21 52 -48z m-6923 -706
c-22 -20 -62 -42 -102 -55 -69 -22 -157 -28 -157 -11 0 6 -7 10 -15 10 -8 0
-15 -7 -15 -15 0 -18 -1 -18 -63 -1 -55 14 -62 29 -15 32 18 1 57 4 86 5 28 2
52 7 52 11 0 4 11 8 24 8 13 0 26 4 28 9 4 10 127 38 178 39 l35 1 -36 -33z
m4771 -1451 c42 -4 84 -18 98 -32 16 -15 32 -17 32 -3 0 6 -8 10 -17 11 -10 0
-13 3 -6 5 6 3 30 -4 52 -16 23 -11 41 -18 41 -15 0 4 5 3 12 -1 7 -5 5 -12
-8 -22 -15 -11 -15 -13 -2 -9 9 3 24 -1 35 -8 10 -9 13 -14 6 -15 -7 0 -13 -7
-13 -15 0 -16 15 -21 23 -7 2 4 2 1 0 -7 -6 -24 25 -49 57 -45 38 5 46 -10 15
-30 -20 -13 -26 -14 -37 -2 -17 17 -58 30 -58 19 0 -12 -219 -7 -250 5 -14 5
-41 8 -60 7 -25 -2 -38 2 -48 16 -7 10 -18 19 -24 19 -7 0 -6 -6 2 -15 10 -13
9 -15 -9 -15 -12 0 -29 9 -38 20 -21 24 -38 26 -29 4 5 -12 2 -15 -11 -9 -10
4 -44 9 -76 10 -32 1 -60 5 -63 7 -2 3 10 11 28 19 18 7 36 18 40 23 5 8 14 7
29 -2 19 -12 20 -11 15 6 -5 14 3 29 24 51 18 17 26 31 20 31 -6 0 -8 5 -4 11
4 7 27 10 60 7 31 -3 54 -1 54 5 0 6 17 7 43 2 23 -4 53 -8 67 -10z m-2942
-351 c12 -8 22 -10 22 -5 0 18 21 12 40 -11 14 -18 20 -20 33 -10 11 9 22 10
41 2 28 -10 27 -30 -2 -30 -13 0 -14 -2 -3 -9 7 -5 21 -6 31 -4 10 3 21 -1 25
-9 5 -7 5 -10 0 -6 -4 4 -13 1 -19 -7 -10 -13 -16 -13 -51 6 -22 12 -34 15
-27 8 25 -26 13 -37 -35 -34 -27 2 -56 6 -65 10 -10 4 -18 3 -18 -2 0 -6 -42
-13 -92 -17 -54 -4 -96 -12 -100 -19 -6 -9 -8 -8 -8 3 0 19 42 39 75 36 13 -2
26 3 29 9 7 20 -2 23 -46 17 -37 -4 -41 -3 -34 13 5 15 4 16 -9 5 -8 -7 -15
-8 -15 -2 0 13 25 33 33 25 4 -3 13 0 21 7 13 10 19 9 33 -5 16 -16 17 -16 25
5 4 11 12 19 17 15 5 -3 12 -1 16 4 4 7 15 7 31 1 34 -13 39 -13 24 5 -16 20
0 19 28 -1z m792 -208 c0 5 9 15 19 21 22 14 79 2 93 -19 13 -22 9 -39 -9 -37
-30 3 -43 -1 -43 -11 0 -5 7 -10 16 -10 8 0 12 -4 9 -10 -4 -6 6 -7 26 -3 22
4 30 3 25 -5 -3 -6 -2 -13 4 -17 5 -3 10 -11 10 -16 0 -6 -4 -8 -8 -5 -4 2
-14 1 -22 -4 -13 -8 -11 -12 8 -25 12 -9 22 -22 22 -28 0 -8 -3 -9 -8 -1 -4 6
-15 14 -26 17 -13 5 -17 15 -14 35 3 22 0 27 -19 28 -13 1 -23 -2 -23 -7 0 -5
-5 -9 -11 -9 -8 0 -8 5 1 15 14 17 2 38 -32 56 -14 7 -18 6 -18 -6 0 -8 6 -15
13 -15 8 0 14 -7 14 -15 0 -8 -4 -15 -9 -15 -4 0 -8 5 -8 10 0 6 -8 10 -18 10
-20 0 -53 32 -72 70 -10 20 -10 23 0 13 10 -9 16 -8 28 4 14 14 18 13 34 -7
10 -12 18 -18 18 -14z m-105 -93 c1 -31 -1 -33 -12 -17 -10 14 -16 15 -25 6
-9 -9 -9 -12 0 -12 7 0 12 -7 12 -15 0 -18 -16 -20 -26 -3 -5 8 -11 6 -20 -6
-12 -16 -13 -16 -22 0 -5 10 -14 14 -21 9 -9 -5 -8 -10 5 -19 16 -12 15 -14
-7 -29 -13 -10 -29 -17 -35 -17 -6 0 -17 -7 -24 -15 -10 -12 -15 -13 -21 -4
-8 13 -1 39 9 37 21 -2 33 4 43 24 10 18 9 20 -5 15 -9 -4 -16 -1 -16 5 0 6
-8 4 -18 -5 -28 -25 -43 -21 -36 8 7 28 -1 32 -23 10 -8 -8 -19 -12 -24 -9 -6
3 -16 -1 -22 -9 -13 -17 -59 -33 -55 -20 1 4 -3 18 -10 31 -7 12 -10 23 -7 23
3 1 9 2 14 3 5 0 13 4 17 9 11 11 21 9 37 -7 13 -13 17 -12 35 4 20 19 21 19
46 -1 14 -11 26 -16 26 -11 0 17 101 36 111 20 4 -6 17 -4 35 6 16 8 25 15 21
16 -5 0 -5 5 -2 11 11 17 20 0 20 -38z m-2063 -1023 c13 -22 29 -40 36 -40 7
0 11 -4 8 -9 -7 -11 18 -33 27 -24 4 3 7 -10 7 -29 0 -23 -8 -44 -23 -60 -32
-34 -50 -82 -44 -115 6 -31 -26 -68 -68 -79 -18 -4 -25 -13 -25 -30 0 -13 -4
-24 -9 -24 -13 0 -20 -49 -7 -53 8 -3 7 -9 -2 -19 -7 -9 -15 -47 -18 -84 -3
-38 -11 -75 -16 -81 -7 -9 -7 -13 1 -13 6 0 11 -5 11 -12 0 -6 -3 -8 -7 -5 -3
4 -12 2 -20 -5 -24 -19 -35 6 -39 89 -4 60 0 94 17 148 11 39 22 80 22 92 1
11 6 19 11 15 5 -3 7 4 4 15 -6 22 17 61 29 49 4 -4 1 -11 -7 -16 -8 -5 -11
-12 -7 -16 8 -9 37 27 31 38 -2 3 5 9 16 13 11 3 20 10 20 15 0 11 -32 0 -42
-14 -4 -6 -10 -7 -15 -3 -4 5 -3 11 3 15 6 4 11 14 12 22 2 53 12 120 21 149
8 25 8 38 0 48 -7 7 -7 13 -2 13 5 0 15 11 21 25 16 35 28 31 54 -15z m264
-679 c-4 -25 -9 -57 -11 -71 -1 -14 3 -40 11 -59 8 -18 14 -40 14 -48 0 -8 13
-40 29 -73 16 -32 32 -73 36 -90 7 -33 7 -33 -25 -26 -36 7 -50 21 -82 81 -11
22 -27 44 -35 48 -10 6 -13 28 -12 88 2 44 6 82 11 85 4 3 8 16 8 29 0 13 7
30 15 39 8 8 18 29 22 47 10 51 27 6 19 -50z m-335 -208 c13 -44 35 -91 57
-120 20 -26 38 -56 39 -66 3 -16 1 -16 -35 2 -96 49 -162 177 -162 312 0 46 2
50 20 44 13 -4 20 -2 21 7 0 14 27 -66 60 -179z m3158 104 c20 3 45 11 56 16
11 6 26 10 34 8 8 -1 18 3 22 11 7 11 12 11 30 0 11 -7 23 -11 26 -8 3 3 19
-2 35 -10 22 -11 28 -20 23 -32 -19 -46 -18 -51 11 -49 17 1 29 -3 29 -10 0
-7 3 -13 8 -13 4 0 12 0 17 0 6 0 10 14 10 30 0 31 20 43 20 13 1 -15 3 -14
13 5 10 17 15 20 25 10 9 -9 12 -8 12 5 0 10 5 14 15 11 8 -4 15 -16 15 -28 0
-11 5 -28 11 -36 7 -11 8 -4 3 25 -8 49 -11 55 -30 55 -8 0 -14 5 -14 10 0 6
10 10 21 10 24 0 62 -37 53 -51 -12 -20 8 -7 36 24 30 31 30 32 45 12 12 -15
18 -17 24 -7 5 8 12 1 20 -22 13 -31 15 -32 32 -18 16 14 17 17 4 25 -25 14
-17 26 10 14 14 -7 25 -15 25 -19 0 -5 7 -8 15 -8 8 0 15 -8 16 -17 0 -16 1
-16 8 1 6 16 9 17 16 5 5 -8 9 -27 10 -43 0 -16 5 -31 11 -33 14 -5 25 58 13
72 -10 13 5 40 18 32 5 -3 8 -19 6 -34 -3 -15 0 -39 6 -53 7 -18 10 -20 10 -7
1 9 4 17 9 17 12 -1 95 -80 83 -80 -6 0 -11 -4 -11 -10 0 -5 7 -10 16 -10 9 0
18 -8 21 -19 2 -10 16 -24 29 -31 13 -8 24 -20 24 -29 0 -13 2 -14 9 -2 8 12
14 12 43 -2 19 -9 40 -28 48 -42 7 -14 17 -25 22 -25 4 0 8 -13 8 -29 0 -21
-6 -30 -22 -34 -12 -4 -27 -2 -34 4 -6 5 -19 7 -28 3 -12 -5 -15 -2 -10 11 6
14 3 16 -14 11 -24 -8 -61 8 -80 36 -7 10 -19 18 -26 18 -7 0 -27 13 -44 30
-18 17 -34 25 -38 19 -8 -14 -62 44 -70 75 -5 21 -9 24 -24 16 -27 -14 -40
-12 -40 6 0 8 -5 12 -10 9 -6 -3 -17 1 -26 10 -9 9 -18 14 -21 12 -2 -3 7 -17
22 -31 21 -21 24 -29 15 -46 -11 -20 -30 -28 -30 -12 0 5 -13 7 -30 6 -16 -1
-30 2 -30 7 0 5 -14 6 -30 2 -26 -5 -29 -3 -23 12 4 13 3 16 -5 11 -7 -4 -12
-14 -12 -22 0 -8 -4 -12 -10 -9 -5 3 -10 -1 -10 -9 0 -9 -4 -16 -10 -16 -5 0
-10 4 -10 9 0 17 -34 22 -46 7 -12 -18 -25 -11 -18 9 3 7 -2 15 -10 18 -18 7
-66 -39 -66 -62 0 -11 -3 -11 -15 -1 -9 7 -15 8 -15 2 0 -5 -14 -15 -30 -21
-18 -6 -28 -6 -25 -1 8 13 -12 13 -37 -1 -18 -10 -20 -9 -15 5 5 12 0 16 -22
16 -16 0 -31 5 -33 10 -2 6 -11 1 -20 -10 -12 -14 -14 -20 -5 -21 6 0 -1 -5
-18 -10 -19 -5 -31 -5 -36 3 -8 13 -29 2 -29 -15 0 -7 -5 -19 -10 -27 -8 -12
-12 -12 -18 -2 -9 14 -45 5 -36 -9 3 -5 -2 -9 -10 -9 -15 0 -18 5 -20 40 -1
17 -46 27 -46 11 0 -6 8 -11 17 -11 12 0 14 -3 6 -11 -8 -8 -17 -8 -31 0 -10
6 -22 7 -26 4 -3 -3 -6 1 -6 10 0 8 -6 18 -12 20 -10 4 -10 8 1 16 11 7 18 5
26 -6 11 -14 12 -14 18 1 5 11 19 16 48 16 52 0 44 12 -14 19 -23 3 -40 11
-38 16 2 6 12 9 21 7 9 -1 23 5 31 14 13 16 11 17 -13 12 -20 -4 -28 0 -31 14
-5 16 -3 17 9 7 11 -9 18 -9 26 -1 13 13 2 33 -16 26 -7 -3 -16 2 -19 10 -4
10 -19 16 -39 16 -18 0 -49 4 -68 10 -26 8 -39 6 -58 -6 -28 -19 -39 -13 -17
9 21 21 20 23 -17 24 -18 0 -45 4 -60 8 -32 8 -37 -5 -12 -30 9 -9 14 -19 10
-22 -7 -8 -38 23 -55 55 -7 13 -17 19 -26 16 -17 -7 -38 36 -25 50 11 12 30
-2 30 -22 0 -14 2 -14 9 -3 5 8 7 20 4 28 -3 7 0 13 6 13 6 0 11 -9 11 -20 0
-19 2 -19 23 -8 28 16 65 20 86 9 9 -5 43 -12 75 -15 32 -4 63 -9 69 -13 18
-11 76 -14 82 -3 3 5 22 10 41 10 19 0 34 5 34 11 0 6 -7 8 -16 5 -9 -3 -14
-3 -12 1 2 5 10 21 18 37 l15 30 9 -26 c8 -23 13 -26 45 -21z m-409 -168 c0
-6 8 -8 18 -5 12 4 21 -2 30 -21 15 -34 16 -51 0 -35 -17 17 -29 15 -22 -3 4
-8 9 -13 13 -11 4 3 13 1 20 -4 11 -6 11 -15 2 -40 -8 -24 -8 -36 0 -46 9 -11
8 -14 -5 -14 -15 0 -21 20 -18 61 1 9 -8 25 -19 35 -20 18 -20 18 -14 -17 3
-18 8 -41 11 -51 3 -9 -1 -20 -7 -24 -8 -5 -10 -2 -6 9 9 23 -25 32 -41 10 -8
-12 -15 -14 -20 -7 -4 6 -15 13 -25 17 -10 4 -16 10 -13 15 8 13 -11 35 -23
28 -6 -4 -11 -19 -11 -33 0 -38 -11 -21 -12 18 -1 19 -8 39 -17 46 -9 6 -13
14 -10 17 3 3 17 -3 30 -15 14 -12 31 -18 44 -15 11 3 24 6 29 6 4 0 6 6 3 14
-7 17 32 29 49 15 8 -7 14 -7 19 0 3 6 -3 18 -15 28 -24 21 -26 33 -5 33 8 0
15 -5 15 -11z m-2498 -156 c28 -32 61 -53 83 -53 8 0 15 -7 15 -15 0 -8 5 -15
11 -15 8 0 8 -4 -1 -15 -6 -8 -38 -17 -69 -21 -54 -6 -59 -9 -69 -38 -7 -18
-19 -41 -27 -51 -15 -19 -16 -17 -14 30 3 56 -9 124 -24 143 -7 9 -2 19 19 37
37 32 47 31 76 -2z m1794 -556 c4 8 16 5 40 -9 33 -20 34 -21 18 -39 -11 -12
-13 -19 -5 -19 6 0 14 6 17 14 3 8 16 22 30 30 20 14 23 14 18 1 -5 -12 0 -14
26 -8 24 4 31 3 26 -5 -4 -7 -14 -12 -21 -12 -8 0 -19 -9 -25 -20 -6 -11 -17
-20 -25 -20 -8 0 -15 -5 -15 -11 0 -6 10 -9 23 -7 16 3 23 0 23 -12 0 -19 -32
-15 -53 6 -10 9 -9 15 2 24 8 7 15 20 15 28 0 14 -1 14 -12 -1 -7 -9 -25 -21
-40 -26 -16 -6 -28 -16 -28 -22 0 -6 7 -9 15 -5 16 6 21 -9 6 -19 -5 -3 -12
-18 -16 -34 -3 -16 -13 -32 -21 -35 -19 -7 -18 9 2 39 13 20 14 28 4 40 -7 8
-10 22 -6 30 4 13 2 14 -14 5 -27 -14 -34 -12 -20 5 10 12 10 15 -3 15 -8 0
-17 -5 -19 -12 -3 -9 -6 -9 -12 0 -4 7 -3 12 3 12 6 0 8 6 5 14 -3 8 3 19 15
26 12 6 21 18 21 28 0 15 2 15 11 2 7 -11 12 -12 15 -3z m-3300 -3938 c1 -8 2
-19 3 -25 1 -13 83 -33 166 -41 33 -3 62 -9 63 -14 2 -5 12 -9 22 -9 10 0 21
-4 25 -10 6 -10 55 5 65 19 3 5 15 11 28 15 16 6 22 3 22 -8 0 -19 7 -20 25
-3 38 36 54 45 58 34 2 -7 -2 -18 -10 -25 -19 -20 -10 -28 34 -27 33 0 40 4
53 32 19 41 25 43 82 28 40 -10 48 -9 53 3 5 13 8 12 20 -4 8 -10 15 -14 15
-8 0 14 38 25 45 14 9 -15 88 -48 128 -55 20 -3 37 -8 37 -11 0 -11 -43 -69
-63 -85 -18 -15 -24 -15 -53 -3 -29 12 -34 12 -46 -4 -20 -26 -61 -47 -66 -34
-2 8 -12 7 -32 -3 -16 -8 -51 -15 -79 -15 -27 0 -51 -5 -53 -11 -3 -8 -34 -6
-108 5 -134 20 -189 35 -218 57 -17 13 -39 17 -80 16 -31 -1 -63 2 -70 7 -8 5
-32 8 -54 8 -22 -1 -51 6 -64 14 -13 9 -32 13 -44 9 -22 -7 -26 -21 -7 -28 6
-2 10 -7 6 -10 -9 -10 -78 5 -76 16 4 19 -35 19 -62 0 -18 -12 -44 -18 -83
-18 -31 0 -55 -2 -53 -4 6 -6 -77 -80 -98 -87 -11 -3 -23 -1 -27 6 -9 14 -86
5 -107 -12 -9 -7 -23 -6 -44 2 -34 14 -84 4 -142 -29 -26 -15 -32 -24 -30 -48
2 -27 -1 -31 -28 -37 -17 -3 -48 -6 -68 -6 -39 0 -54 -7 -64 -30 -4 -8 -11
-22 -16 -30 -5 -8 -12 -23 -15 -32 -8 -26 -23 -22 -22 5 1 21 -3 22 -86 24
-58 1 -88 -2 -88 -9 0 -7 15 -9 40 -5 28 4 45 1 55 -10 20 -20 19 -26 -5 -20
-12 3 -23 -1 -29 -10 -8 -15 -54 -14 -109 3 l-23 7 21 14 c16 11 19 18 11 26
-8 8 -15 6 -24 -7 -12 -16 -14 -16 -26 -2 -19 23 -31 20 -31 -8 0 -14 -7 -26
-17 -30 -10 -3 -26 -11 -35 -18 -14 -10 -22 -10 -37 -1 -15 10 -22 9 -30 -1
-6 -7 -30 -19 -53 -26 -24 -8 -50 -20 -59 -27 -8 -7 -22 -13 -30 -13 -8 0 -24
-7 -36 -15 -20 -14 -22 -13 -35 15 -16 38 -22 38 -38 0 -9 -21 -19 -30 -36
-30 -13 0 -25 6 -25 13 -1 6 -3 23 -5 37 -14 90 -4 141 22 119 17 -14 63 -6
119 20 22 11 76 25 120 31 44 6 88 13 98 16 11 4 17 0 18 -13 0 -10 3 -13 6
-5 2 6 14 12 25 12 17 0 18 2 8 15 -17 20 -11 25 36 31 68 9 79 13 99 32 25
22 78 42 116 42 15 0 31 5 34 11 4 6 13 8 21 5 8 -3 17 1 21 10 3 8 11 13 19
10 7 -3 15 0 18 7 2 7 5 2 5 -11 l1 -22 39 20 c22 11 46 29 54 41 11 15 16 17
20 7 4 -9 6 -8 6 4 1 20 30 30 91 33 25 1 45 4 45 5 0 1 9 4 20 5 11 1 35 5
53 9 21 5 32 4 32 -3 0 -6 4 -11 8 -11 4 0 14 26 22 57 12 48 20 60 45 72 32
15 70 17 121 6 22 -5 39 -2 57 9 19 13 30 14 51 6 19 -7 33 -7 47 1 14 7 29 7
52 -2 26 -9 43 -8 82 3 63 19 129 17 131 -3z m10629 -300 c131 -9 161 -11 225
-8 19 0 47 -1 63 -4 25 -5 32 1 28 26 -1 8 44 -1 71 -14 9 -5 26 -9 38 -9 37
0 303 -81 352 -108 53 -28 65 -47 43 -68 -8 -9 -15 -20 -15 -25 0 -12 -27 -11
-35 1 -4 6 -2 17 4 24 9 10 8 15 -4 20 -9 3 -15 0 -15 -10 0 -18 -38 -10 -55
11 -5 7 -26 15 -45 17 -19 3 -43 8 -53 13 -14 6 -20 3 -23 -12 -7 -27 -40 -40
-89 -35 -81 7 -117 7 -121 0 -3 -5 -15 -8 -27 -8 -19 0 -105 -29 -147 -50 -9
-4 -36 -8 -60 -8 -25 -1 -46 -6 -48 -11 -2 -6 -12 -11 -22 -11 -10 0 -22 -4
-25 -10 -3 -5 -18 -10 -32 -10 -14 0 -40 -7 -59 -16 -39 -19 -215 -16 -221 3
-5 15 31 26 82 25 22 0 50 6 62 14 13 8 33 12 45 9 13 -3 28 -2 34 2 19 13 34
51 28 67 -3 9 -1 16 5 16 6 0 11 7 11 15 0 9 -9 15 -25 15 -14 0 -34 9 -45 20
-12 12 -39 22 -63 25 -189 20 -314 23 -542 14 -345 -14 -435 -12 -435 12 0 12
56 22 200 35 25 2 67 9 93 14 26 6 85 10 130 11 45 0 147 7 227 14 144 13 215
12 465 -6z m-11130 -59 c4 -11 16 -21 28 -21 12 -1 40 -3 62 -4 22 -1 42 -3
45 -4 3 -2 40 -4 82 -5 79 -1 119 -17 89 -35 -18 -11 -5 -31 20 -31 15 0 19
-7 19 -31 0 -29 -2 -31 -27 -24 -16 4 -87 8 -159 10 -124 3 -174 13 -174 35 0
6 -7 10 -15 10 -7 0 -18 8 -24 18 -8 14 -12 15 -22 5 -17 -17 -66 -16 -72 0
-6 17 6 38 24 41 8 1 26 10 41 20 15 10 32 15 38 11 5 -3 10 1 10 9 0 23 28
20 35 -4z m403 -167 c6 -15 12 -33 12 -40 0 -8 12 -13 30 -13 17 0 30 5 30 11
0 6 -9 9 -20 6 -14 -3 -20 0 -20 10 0 9 -8 22 -17 29 -16 12 -15 13 15 14 17
0 32 -4 32 -9 0 -5 10 -12 23 -16 12 -3 40 -15 62 -25 22 -10 55 -24 73 -32
17 -7 30 -17 29 -23 -4 -11 -47 -7 -63 6 -6 5 -13 7 -16 4 -11 -11 -90 -8 -98
4 -5 9 -13 10 -25 4 -24 -14 -105 15 -105 38 0 5 9 9 20 9 21 0 27 15 10 25
-11 7 -4 25 8 25 4 0 13 -12 20 -27z m4017 -651 c22 0 47 1 55 1 52 0 145 -35
153 -57 5 -13 -11 -15 -125 -10 -72 2 -134 7 -138 9 -5 3 -27 7 -51 10 -49 7
-45 4 -53 31 -6 20 -3 21 56 18 35 -1 81 -2 103 -2z m-3725 -151 c0 -15 33
-23 41 -10 6 11 24 12 142 6 9 -1 17 -4 17 -8 0 -4 9 -5 19 -2 21 5 64 -14 57
-25 -5 -9 -154 -7 -163 2 -3 3 -12 1 -20 -5 -10 -9 -17 -8 -28 1 -12 10 -15
10 -15 0 0 -8 -9 -10 -27 -6 -16 4 -35 8 -43 9 -9 2 -20 6 -26 10 -6 3 -19 0
-29 -7 -10 -7 -32 -11 -48 -10 -37 5 -38 6 -27 24 7 11 24 14 59 13 28 -1 53
2 56 7 8 13 35 13 35 1z m40 -1001 c0 11 60 6 104 -9 30 -10 40 -11 46 -1 5 8
22 10 56 6 47 -6 123 -7 283 -3 48 1 76 -2 78 -9 4 -12 -117 -24 -237 -25 -30
0 -77 -1 -105 -1 -27 0 -75 0 -105 -1 -35 0 -55 4 -58 13 -3 9 -7 9 -14 -1 -7
-11 -11 -11 -15 -1 -2 6 -9 12 -14 12 -6 0 -7 -4 -4 -10 3 -5 -4 -12 -17 -14
-40 -9 -161 -19 -213 -18 -27 0 -122 -6 -210 -14 -88 -9 -256 -17 -372 -20
-187 -4 -213 -3 -213 11 0 9 9 15 26 15 14 0 34 5 45 10 13 8 19 7 19 0 0 -6
15 -8 38 -5 20 3 93 7 162 10 69 2 146 7 173 10 34 4 47 2 47 -7 0 -9 2 -10 8
-2 4 6 21 11 37 11 17 0 41 3 55 6 14 4 46 8 71 10 25 2 51 7 57 11 6 3 44 6
84 5 40 -1 84 3 98 8 13 6 39 7 57 3 18 -5 33 -4 33 0z m11236 -44 c-3 -14 -2
-28 4 -31 16 -10 12 -81 -5 -95 -8 -7 -15 -18 -15 -24 0 -6 -12 -29 -26 -50
-19 -28 -25 -46 -20 -68 3 -18 0 -41 -10 -60 -8 -16 -13 -36 -10 -43 2 -7 -1
-16 -8 -18 -8 -3 -16 -18 -19 -34 -10 -53 -16 -73 -41 -130 -13 -32 -24 -65
-24 -73 -1 -8 -12 -51 -27 -95 -15 -44 -30 -93 -35 -110 -22 -80 -74 -399 -86
-532 -5 -57 -11 -76 -30 -94 l-23 -21 1 58 c1 33 0 68 -2 79 -3 23 6 73 20
110 13 34 13 75 0 75 -5 0 -10 7 -10 15 0 8 4 15 9 15 5 0 13 14 16 32 6 23 3
35 -9 43 -20 15 -21 29 -2 22 7 -3 19 0 25 6 15 15 14 64 -1 70 -10 4 -9 8 2
16 12 8 12 13 2 23 -15 15 -16 70 -1 85 5 5 10 29 11 52 0 30 7 47 24 64 16
15 24 33 24 59 0 20 4 39 9 42 4 3 6 17 3 31 -3 18 1 30 13 39 12 9 16 21 13
39 -3 17 -1 27 6 27 7 0 10 15 8 40 -2 22 0 53 6 68 6 15 13 39 16 53 3 14 17
31 31 37 14 6 25 18 25 26 0 8 6 19 14 23 8 4 20 37 27 73 7 36 23 81 35 101
13 20 20 40 16 44 -7 7 25 35 41 35 5 0 6 -11 3 -24z m-8860 -31 c-3 -9 0 -15
9 -15 8 0 15 4 15 9 0 15 41 24 53 12 7 -7 6 -16 -6 -29 -16 -18 -16 -20 0
-34 10 -9 28 -21 41 -27 19 -10 22 -9 22 9 0 13 7 20 19 20 10 0 21 9 24 20 3
11 9 20 14 20 15 0 47 -63 46 -90 -1 -20 0 -21 6 -7 11 30 33 -4 26 -40 -5
-21 -4 -24 4 -13 16 23 22 7 11 -31 -13 -44 -13 -70 -1 -50 9 15 51 7 51 -10
0 -20 -21 -49 -31 -43 -22 13 -38 -4 -30 -33 5 -17 2 -37 -6 -53 -18 -34 -16
-50 5 -50 16 -1 16 -1 -1 -11 -13 -7 -27 -7 -48 0 -39 13 -59 5 -59 -26 0 -21
-2 -23 -15 -13 -8 6 -19 9 -25 5 -6 -3 -10 3 -10 17 0 17 -3 19 -9 9 -13 -21
-64 15 -56 40 4 11 0 25 -8 33 -12 13 -16 12 -25 -8 -8 -18 -6 -25 10 -35 15
-10 17 -15 8 -26 -8 -10 -17 -12 -29 -5 -9 5 -23 5 -30 1 -20 -13 -63 0 -68
20 -3 11 -9 19 -14 19 -5 0 -9 8 -9 18 -1 16 -1 16 -10 0 -6 -9 -9 -27 -8 -39
2 -16 -3 -24 -16 -27 -11 -2 -16 0 -12 7 5 7 -2 11 -16 11 -16 0 -19 -3 -10
-9 11 -7 12 -12 1 -29 -9 -14 -17 -18 -24 -12 -8 6 -19 3 -33 -10 -20 -19 -22
-19 -32 -2 -8 11 -13 13 -16 5 -3 -7 -12 -9 -20 -6 -9 3 -14 -1 -14 -12 0 -13
-6 -16 -21 -12 -12 3 -22 0 -26 -9 -3 -8 -19 -14 -40 -14 -26 0 -36 5 -40 20
-7 26 -20 26 -28 -1 -5 -14 1 -27 21 -46 28 -25 28 -25 61 -8 18 10 36 15 40
12 3 -4 1 -7 -5 -7 -7 0 -12 -7 -12 -15 0 -8 -4 -15 -10 -15 -5 0 -19 -9 -30
-20 l-20 -20 -20 20 c-21 21 -32 23 -68 14 -13 -4 -22 -14 -21 -23 3 -37 -1
-41 -47 -41 -38 0 -51 -5 -71 -27 -21 -22 -28 -25 -44 -15 -26 17 -85 15 -103
-3 -9 -9 -17 -11 -21 -5 -12 19 -45 10 -55 -15 -9 -25 -40 -35 -40 -14 0 16
-40 69 -52 69 -6 0 -8 -9 -5 -20 4 -15 0 -20 -14 -20 -14 0 -19 7 -19 26 0 16
-5 24 -12 21 -7 -2 -12 -16 -10 -30 2 -21 -1 -24 -18 -20 -11 3 -20 0 -20 -6
0 -6 -5 -11 -11 -11 -8 0 -10 12 -6 34 4 28 3 34 -9 29 -8 -3 -14 1 -14 8 0
19 11 32 38 47 18 10 22 10 22 0 0 -9 3 -9 9 1 5 8 7 20 4 27 -6 17 37 30 48
13 4 -8 4 -16 -2 -20 -6 -3 -4 -11 5 -18 19 -16 73 5 82 31 3 9 13 20 23 23
11 3 21 13 24 23 2 9 30 31 61 47 47 25 58 28 65 16 8 -12 12 -12 25 -2 10 8
43 13 90 12 74 -1 74 0 85 29 6 18 6 30 0 30 -5 0 -9 5 -9 10 0 6 6 10 13 8 6
-1 23 4 36 11 17 9 26 10 34 2 16 -16 47 -13 47 4 0 8 -11 17 -25 21 -14 4
-24 11 -22 18 7 21 -41 48 -72 41 -33 -7 -52 10 -21 20 11 3 72 7 135 7 106 1
115 2 115 20 0 10 7 21 15 24 8 4 15 12 15 20 0 9 12 12 37 11 49 -4 57 -27 9
-27 -20 0 -36 -4 -36 -10 0 -16 45 -12 78 7 35 20 64 11 62 -19 -1 -13 -2 -33
-1 -45 1 -20 3 -21 26 -11 14 6 25 18 25 26 0 7 9 16 19 19 11 3 21 13 24 24
4 15 0 19 -19 19 -19 0 -24 -5 -24 -25 0 -18 -5 -25 -20 -25 -16 0 -20 7 -20
30 0 26 3 30 29 30 23 0 31 6 42 31 11 28 10 33 -4 44 -15 11 -14 13 10 24 21
10 28 9 36 -1 7 -10 8 -9 4 3 -3 9 -1 21 5 27 7 7 4 19 -10 40 -12 16 -19 32
-15 36 3 3 1 6 -6 6 -7 0 -9 5 -6 10 10 16 38 12 31 -5z m-1176 -65 c4 -17 8
-21 14 -12 4 6 4 17 1 22 -9 15 13 12 39 -5 13 -9 43 -15 67 -15 68 1 74 0 87
-20 10 -17 8 -18 -36 -15 -26 2 -55 1 -65 -1 -17 -5 -17 -7 -2 -18 9 -6 18
-29 21 -51 4 -30 2 -37 -7 -28 -9 9 -17 7 -32 -8 -26 -24 -53 -21 -50 6 2 11
-2 27 -7 35 -9 13 -11 13 -19 1 -5 -8 -7 -21 -4 -28 5 -11 -2 -13 -33 -9 -26
4 -31 3 -14 -2 17 -5 21 -10 13 -15 -13 -8 -79 18 -89 34 -11 19 8 30 21 12
10 -13 17 -15 25 -7 9 9 6 15 -10 27 -18 12 -20 19 -11 36 9 17 8 22 -9 31
-32 17 -14 30 43 32 42 1 45 2 17 6 -30 4 -32 6 -15 13 31 12 49 6 55 -21z
m6043 -6 c5 -8 13 -12 18 -8 5 3 8 0 7 -8 -2 -9 8 -12 32 -11 19 1 29 -1 23
-3 -18 -8 -16 -24 2 -24 9 0 29 14 46 31 21 22 34 28 41 21 12 -12 2 -32 -15
-32 -12 0 -47 -34 -47 -46 0 -4 14 -4 31 -2 27 4 30 3 25 -18 -3 -12 -3 -24 2
-27 4 -2 2 -2 -5 -1 -7 2 -15 -1 -18 -6 -4 -6 -17 -10 -31 -10 -18 0 -28 -8
-37 -27 -9 -22 -19 -28 -44 -28 -17 0 -35 3 -39 8 -14 13 -24 7 -25 -15 l-2
-23 -4 23 c-2 12 -11 22 -19 22 -17 0 -18 -22 -2 -38 9 -9 9 -15 0 -24 -9 -9
-12 -8 -12 5 0 9 -5 27 -12 41 -9 20 -14 23 -25 14 -22 -18 -25 -3 -4 21 12
13 21 17 23 10 2 -7 24 -11 56 -11 33 1 52 -3 52 -10 0 -6 9 -3 20 7 20 18 27
69 11 79 -5 3 -12 -5 -15 -18 -4 -18 -12 -23 -33 -21 -57 4 -58 4 -45 17 21
21 13 33 -23 36 -24 1 -37 -3 -41 -13 -4 -8 -12 -15 -19 -15 -7 0 -15 -6 -18
-12 -2 -7 -7 -11 -10 -8 -4 3 0 19 8 34 21 39 19 47 -10 40 -15 -4 -25 -2 -25
5 0 6 15 11 34 11 40 0 62 20 43 40 -9 10 -9 11 0 6 7 -4 21 -2 30 3 22 13 65
5 76 -15z m-4363 -8 c0 -8 -4 -16 -9 -18 -12 -4 -2 -58 10 -58 5 0 9 7 9 15 0
8 5 15 10 15 6 0 10 -4 10 -10 0 -5 7 -10 16 -10 8 0 12 5 9 10 -3 6 -2 10 3
10 16 0 22 -13 11 -27 -13 -15 -1 -17 19 -4 8 4 12 17 10 27 -2 15 2 18 20 16
17 -1 25 4 29 18 3 11 14 20 24 20 23 0 25 -15 4 -24 -16 -6 -21 -36 -5 -36
10 0 6 -37 -9 -87 -5 -18 -6 -35 -2 -37 15 -10 32 12 33 42 1 25 6 32 22 33
17 1 18 2 4 6 -20 5 -20 5 -12 27 5 12 10 14 19 6 9 -7 16 -6 25 5 14 17 40
20 40 6 0 -6 -4 -12 -9 -15 -5 -3 -7 -14 -4 -25 3 -13 -7 -28 -36 -52 -23 -18
-41 -39 -41 -46 0 -10 -7 -12 -19 -8 -15 5 -23 -2 -36 -29 -9 -19 -23 -40 -31
-47 -8 -6 -14 -18 -14 -25 0 -8 -4 -14 -10 -14 -13 0 -13 -3 9 63 21 64 8 77
-28 31 -12 -15 -21 -22 -21 -17 0 6 -9 13 -20 16 -11 3 -20 1 -20 -4 0 -5 7
-9 15 -9 8 0 15 -7 15 -15 0 -8 -4 -15 -9 -15 -5 0 -12 -16 -15 -35 -4 -20
-11 -33 -17 -29 -5 3 -7 14 -4 24 3 10 0 33 -8 52 -8 18 -12 38 -10 45 6 17
-16 26 -32 13 -8 -7 -13 -22 -12 -33 1 -17 -4 -23 -23 -25 -33 -5 -48 -20 -27
-28 13 -5 14 -10 6 -26 -8 -15 -14 -17 -22 -9 -18 18 -27 13 -28 -16 -2 -25
-2 -26 -6 -5 -3 15 -10 22 -18 18 -8 -3 -17 -1 -20 4 -3 4 8 11 24 15 28 6 49
41 29 47 -7 3 -7 17 0 42 10 35 9 40 -11 57 -12 10 -18 18 -14 19 5 0 1 7 -8
16 -16 16 -17 37 -1 34 5 -1 13 4 17 12 8 11 10 11 18 -1 5 -8 17 -11 28 -7
17 5 22 1 26 -24 4 -20 12 -30 24 -30 14 0 15 2 5 9 -9 5 -11 17 -6 34 7 30
21 35 30 12 4 -8 10 -12 15 -9 14 8 10 24 -6 24 -8 0 -15 5 -15 10 0 6 -7 10
-16 10 -8 0 -12 5 -9 10 3 6 15 10 26 10 12 0 19 7 19 20 0 11 7 20 15 20 8 0
15 -6 15 -14z m2146 -81 c10 -8 27 -15 37 -15 11 0 31 -9 45 -21 l27 -20 17
22 c15 18 25 20 57 15 28 -4 42 -2 51 9 13 16 76 20 98 7 7 -5 15 -26 18 -48
3 -21 2 -34 -3 -28 -4 5 -17 11 -28 12 -42 3 -90 15 -96 25 -4 5 -15 -9 -25
-32 -10 -22 -23 -41 -28 -41 -6 0 -26 14 -43 31 -28 25 -38 29 -66 24 -25 -5
-43 -1 -68 14 -19 12 -42 21 -51 21 -25 0 -22 19 5 30 30 12 31 12 53 -5z
m-4355 -67 c0 -10 2 -10 6 0 7 18 63 16 63 -4 0 -8 4 -13 8 -10 4 2 19 -4 32
-15 l25 -19 -25 0 c-15 0 -31 5 -38 12 -20 20 -26 -1 -7 -22 10 -11 15 -23 12
-26 -4 -4 -9 1 -13 10 -9 24 -24 19 -24 -8 0 -13 -6 -29 -14 -35 -12 -10 -15
-7 -18 16 -3 25 -6 28 -33 24 -16 -3 -39 -5 -51 -5 -12 -1 -21 -7 -20 -16 1
-10 -7 -14 -21 -13 -14 2 -23 -3 -23 -11 0 -8 -9 -18 -20 -21 -11 -3 -20 -10
-20 -16 0 -5 -8 -18 -17 -28 -9 -11 -18 -30 -20 -42 -4 -27 -22 -51 -33 -44
-5 3 -6 14 -3 25 3 12 0 20 -6 20 -7 0 -9 5 -6 10 7 11 -18 40 -34 40 -6 0 -8
7 -5 15 5 12 2 14 -12 8 -17 -6 -17 -5 -5 10 10 13 17 14 27 6 9 -8 15 -5 23
10 15 27 14 31 -4 25 -11 -5 -14 -2 -8 12 11 31 53 66 66 56 7 -5 27 -8 44 -7
30 3 32 1 27 -21 -4 -16 -2 -24 7 -24 7 0 9 3 6 6 -3 4 -2 15 4 25 7 15 18 18
47 14 36 -4 36 -4 10 7 -36 15 -35 22 5 35 46 15 67 15 68 1z m6232 -98 c6
-24 43 -27 67 -5 14 12 23 13 46 5 16 -6 32 -16 36 -22 5 -9 11 -8 22 1 11 9
16 10 16 2 0 -6 12 -11 28 -12 15 0 21 -3 15 -6 -7 -2 -13 -11 -13 -19 0 -7 6
-11 14 -8 8 3 17 0 22 -7 5 -9 -1 -11 -24 -6 -19 4 -32 2 -32 -3 0 -6 7 -10
15 -10 8 0 15 -4 15 -10 0 -5 -9 -10 -19 -10 -11 0 -23 -4 -26 -10 -3 -5 0 -7
9 -4 17 7 32 -35 22 -62 -4 -11 -2 -15 8 -11 8 3 20 -1 27 -9 7 -9 21 -13 31
-11 11 3 18 0 18 -8 0 -8 -12 -15 -27 -17 -31 -4 -44 -28 -15 -28 12 0 23 -9
27 -21 9 -26 0 -35 -19 -20 -10 8 -16 9 -21 1 -3 -5 -12 -10 -20 -10 -10 0
-12 11 -10 37 2 21 -1 44 -7 51 -6 7 -12 30 -12 50 -1 32 -4 37 -23 35 -25 -3
-32 24 -12 44 7 7 9 23 5 37 -5 22 -12 26 -44 26 -36 0 -36 -1 -12 -13 25 -13
38 -61 19 -72 -5 -4 -9 1 -9 9 0 9 -7 16 -15 16 -9 0 -15 -9 -15 -23 0 -41
-19 -48 -60 -22 -40 25 -75 27 -75 4 0 -8 -4 -20 -8 -26 -9 -15 23 -18 39 -4
13 12 122 -10 128 -26 4 -8 -3 -13 -19 -13 -14 0 -25 -4 -25 -10 0 -15 54 -12
76 5 24 18 35 19 28 1 -3 -8 -1 -17 5 -21 20 -12 12 -26 -8 -16 -18 10 -31 6
-31 -11 0 -4 6 -8 14 -8 18 0 27 -23 16 -40 -13 -22 -2 -30 32 -23 22 4 29 3
24 -5 -4 -7 -16 -12 -27 -12 -11 0 -17 -4 -14 -10 9 -14 -7 -12 -30 4 -24 16
-78 19 -68 3 4 -6 0 -8 -10 -4 -8 3 -17 0 -20 -6 -6 -16 10 -57 23 -57 14 0
13 -27 -2 -37 -14 -8 -19 -63 -7 -63 4 0 9 4 11 9 2 4 22 10 46 14 34 4 42 2
42 -11 0 -11 3 -13 11 -5 5 5 21 8 35 5 l26 -5 -29 -24 -28 -23 35 13 c28 11
36 19 38 44 l3 31 57 -4 c31 -2 67 -3 80 -4 12 0 22 -5 22 -11 0 -8 -17 -10
-50 -7 -28 3 -53 2 -55 -2 -3 -5 -2 -22 1 -39 7 -34 39 -44 47 -13 2 9 4 1 4
-18 0 -28 -4 -35 -21 -36 -12 -1 -31 -4 -44 -7 -16 -4 -22 -2 -19 6 6 17 -12
49 -24 42 -5 -4 -6 -11 -3 -17 13 -20 13 -59 1 -55 -7 2 -12 14 -11 25 0 17
-2 19 -13 11 -7 -6 -13 -19 -13 -28 -1 -13 -4 -12 -19 6 -18 21 -48 22 -76 3
-14 -10 -128 2 -165 18 -17 7 -60 10 -145 11 -33 1 -67 6 -75 11 -12 8 -10 10
9 10 16 0 21 4 17 15 -3 8 -1 15 4 15 6 0 10 -10 10 -21 0 -17 3 -19 14 -10 8
7 42 12 75 13 62 1 82 10 59 25 -19 12 -17 52 3 58 9 3 21 4 25 3 9 -3 14 5
14 20 0 4 -20 6 -45 4 -40 -4 -45 -2 -45 16 0 17 6 20 38 18 20 -1 44 -6 52
-11 13 -8 13 -7 1 8 -8 10 -9 17 -3 17 6 0 12 10 14 23 2 12 10 22 18 22 9 0
14 -7 12 -19 -4 -20 16 -38 31 -29 4 2 3 11 -3 18 -7 8 -9 19 -5 25 3 5 -1 10
-9 10 -9 0 -16 5 -16 10 0 16 -35 -10 -46 -33 -7 -16 -19 -22 -51 -23 -42 -2
-63 8 -43 21 6 4 8 11 5 16 -4 5 6 9 22 9 22 0 25 2 13 10 -13 9 -13 10 0 10
11 0 10 3 -4 11 -14 9 -20 8 -27 -2 -7 -12 -9 -12 -9 0 0 7 -6 11 -15 8 -8 -4
-17 -2 -20 3 -4 6 -14 5 -25 -2 -11 -7 -23 -8 -27 -4 -4 5 -2 11 5 13 7 3 21
14 32 25 13 14 29 19 62 18 23 -1 48 -1 53 0 6 1 18 2 28 1 9 -1 17 4 17 13 0
9 7 16 15 16 8 0 15 5 15 10 0 6 -16 10 -36 10 -28 0 -35 -3 -30 -15 7 -19
-37 -21 -53 -2 -8 10 -34 13 -96 11 -60 -1 -85 1 -85 10 0 7 14 11 35 11 19
-1 35 2 35 7 0 5 8 7 18 4 55 -16 75 -18 68 -7 -4 6 -18 11 -32 11 -45 0 -24
20 24 22 l47 1 -42 4 c-24 2 -43 9 -43 14 0 5 6 9 13 7 7 -2 15 1 17 6 9 17
-47 25 -75 10 -39 -20 -51 -17 -24 6 26 21 27 20 -31 24 -8 1 -21 5 -28 9 -7
5 -21 5 -30 1 -9 -4 -29 -6 -44 -5 -18 2 -28 -3 -31 -16 -3 -10 -5 0 -3 21 1
30 7 41 24 47 13 5 22 4 22 -2 0 -6 7 -6 20 1 17 9 19 8 13 -7 -6 -16 -5 -16
10 -5 14 12 25 11 72 -7 31 -12 69 -21 85 -21 32 0 100 -29 100 -42 0 -14 18
-9 23 6 4 10 1 13 -8 10 -8 -4 -15 3 -17 18 -2 19 -8 23 -33 20 -29 -2 -29 -2
-11 13 19 15 19 15 -5 16 -18 1 -15 3 11 8 25 5 38 3 47 -7 15 -18 43 -9 43
13 0 10 -5 13 -12 9 -9 -5 -9 -2 1 9 18 22 28 21 34 -3z m-6753 -16 c0 9 5 16
10 16 6 0 10 -9 10 -20 0 -12 7 -20 18 -20 14 0 14 2 3 9 -12 8 -12 12 -2 25
20 24 34 19 29 -9 -6 -27 1 -29 70 -27 18 0 30 -3 27 -9 -4 -5 2 -13 12 -17
34 -14 25 -32 -15 -32 -26 0 -45 7 -57 20 l-19 21 -23 -26 c-24 -25 -46 -27
-93 -7 -28 11 -70 8 -70 -5 0 -10 -12 -12 -47 -8 -71 7 -82 10 -95 23 -7 7
-18 12 -25 12 -19 0 -16 17 5 25 9 4 44 9 77 11 99 6 108 8 129 28 19 19 19
19 38 -4 14 -17 18 -19 18 -6z m2917 -88 c-2 -17 -1 -41 4 -53 7 -18 5 -23 -9
-23 -16 -1 -16 -1 1 -11 14 -8 16 -14 6 -25 -15 -18 -7 -27 15 -18 10 4 15 13
11 22 -7 18 39 66 57 60 7 -3 23 7 35 21 21 24 23 24 23 6 0 -11 -12 -31 -25
-44 -14 -13 -25 -27 -25 -32 0 -5 -11 -11 -25 -15 -14 -3 -25 -12 -25 -20 0
-8 -6 -14 -12 -14 -7 0 -5 -5 5 -11 9 -6 15 -14 12 -20 -10 -16 -25 -10 -34
13 l-8 22 -12 -22 c-6 -12 -21 -22 -31 -22 -11 0 -20 -4 -20 -9 0 -6 -12 -6
-31 1 -40 14 -46 5 -17 -24 l23 -23 -22 -3 c-34 -5 -28 -22 7 -22 17 0 30 5
30 10 0 6 7 10 15 10 8 0 15 -4 15 -10 0 -5 18 -10 39 -10 l39 0 -19 -37 c-11
-21 -24 -38 -29 -37 -33 3 -35 4 -21 13 8 5 11 16 8 25 -8 20 -37 21 -37 2 0
-7 -9 -16 -21 -19 -16 -4 -19 -11 -14 -26 4 -14 2 -21 -7 -21 -10 0 -13 10
-10 34 4 31 2 34 -30 40 -58 12 -78 9 -104 -19 -23 -25 -52 -30 -47 -7 2 11
-46 27 -55 18 -2 -3 7 -10 21 -15 19 -8 25 -16 23 -35 -2 -14 3 -27 10 -30 8
-3 14 -12 14 -21 0 -8 18 -22 40 -31 42 -17 49 -41 11 -36 -20 2 -22 -1 -16
-28 7 -32 -5 -39 -25 -15 -17 21 -43 -1 -36 -29 6 -21 -19 -56 -39 -56 -7 0
-32 -11 -56 -23 -24 -13 -50 -22 -56 -20 -11 4 -17 -8 -15 -28 1 -4 -10 -10
-23 -13 -13 -3 -29 -15 -35 -27 -11 -20 -55 -44 -77 -40 -14 2 -53 -34 -53
-49 0 -5 -7 -10 -15 -10 -8 0 -33 -16 -55 -36 -23 -21 -46 -34 -55 -31 -8 4
-20 -2 -27 -12 -7 -10 -28 -22 -46 -26 -18 -4 -36 -13 -39 -21 -3 -8 -11 -14
-18 -14 -6 0 -20 -9 -30 -20 -10 -11 -26 -20 -37 -20 -10 0 -18 -4 -18 -10 0
-5 -7 -10 -15 -10 -9 0 -15 9 -15 25 0 14 -3 24 -7 23 -11 -2 -60 19 -66 29
-8 13 16 38 38 37 34 0 66 18 55 31 -8 9 -6 14 6 19 25 10 34 7 34 -9 0 -20
26 -19 49 2 38 34 50 43 63 43 9 0 9 3 0 12 -8 8 -9 15 -1 25 8 9 8 13 1 13
-6 0 -16 -13 -24 -30 -7 -16 -17 -30 -21 -30 -5 0 -6 4 -2 9 3 5 1 12 -4 15
-5 3 -11 -1 -15 -9 -7 -18 -52 -20 -59 -2 -4 7 -8 3 -12 -10 -10 -30 -29 -29
-43 2 -6 14 -18 25 -27 25 -8 0 -15 8 -15 19 0 21 23 45 33 34 10 -9 8 20 -2
36 -12 19 -61 6 -61 -16 0 -9 -7 -25 -17 -35 -15 -17 -15 -18 7 -18 16 0 21
-5 17 -17 -11 -42 -11 -48 0 -46 7 2 10 -4 7 -12 -8 -19 -11 -19 -37 5 -15 15
-29 19 -48 15 -15 -4 -30 -1 -34 4 -3 6 -22 11 -41 11 -34 0 -44 12 -21 27 6
4 17 17 23 28 6 11 21 22 34 25 13 3 24 13 26 23 3 20 20 37 56 56 25 13 30
12 47 -3 18 -16 20 -16 42 16 12 18 41 49 62 69 26 24 36 39 28 43 -19 12 -3
24 25 18 22 -4 33 2 54 29 24 29 34 33 78 35 32 1 57 7 67 18 9 9 25 16 36 16
10 0 19 4 19 8 0 5 14 23 31 40 17 18 27 32 23 32 -5 1 3 7 18 15 28 16 59 11
57 -9 -3 -24 14 -57 27 -52 36 14 17 -60 -26 -99 -11 -10 -20 -24 -20 -31 0
-7 -7 -19 -15 -28 -9 -8 -16 -19 -17 -23 -3 -30 -20 -53 -40 -54 -22 0 -22 -1
-3 -8 14 -6 25 -3 38 10 21 22 21 22 62 8 28 -11 33 -9 67 25 20 20 46 36 58
36 16 0 20 4 15 19 -4 14 1 20 20 25 32 8 27 31 -6 31 -44 1 -90 16 -85 28 4
7 9 20 12 30 8 21 18 22 34 2 16 -19 25 -19 50 2 24 21 26 33 5 33 -8 0 -15
-7 -15 -15 0 -8 -5 -15 -11 -15 -6 0 -9 8 -7 18 4 21 48 29 59 11 4 -8 11 -10
15 -6 4 4 -1 16 -10 26 -13 14 -24 18 -39 12 -37 -13 -110 -14 -103 -2 4 6 20
11 35 11 15 0 43 5 60 11 32 11 32 13 28 61 -5 47 -4 48 13 33 26 -23 60 -12
52 18 -3 12 -7 16 -10 9 -2 -6 -11 -12 -19 -12 -10 0 -13 6 -9 16 3 9 6 20 6
25 0 5 11 9 25 9 14 0 24 3 23 8 -2 9 29 82 36 82 2 0 2 -8 -1 -19 -3 -10 0
-22 6 -25 17 -11 13 -27 -6 -24 -11 2 -18 -3 -18 -12 0 -8 9 -15 19 -15 19 0
24 6 48 62 l14 33 22 -21 c16 -14 33 -19 63 -17 36 2 69 18 37 18 -10 0 -10 2
1 9 7 5 11 13 7 19 -3 5 1 12 9 16 8 3 15 16 15 30 0 34 10 57 22 50 5 -4 8
-20 5 -38z m521 -31 c16 -5 22 -15 22 -36 0 -27 -3 -29 -40 -29 -25 0 -41 -5
-41 -12 -1 -7 -2 -20 -3 -28 -2 -24 -32 -61 -47 -58 -8 2 -17 12 -21 23 -5 17
-6 16 -7 -6 -1 -21 -9 -28 -41 -39 -21 -7 -37 -16 -35 -20 2 -4 -7 -18 -21
-31 -37 -35 -103 -32 -104 4 0 4 9 3 19 -3 30 -16 36 -12 16 10 -17 19 -17 20
1 27 10 4 19 2 22 -5 2 -8 8 -8 18 3 20 19 14 30 -13 27 -13 -2 -23 1 -23 7 0
6 16 11 35 11 59 0 101 23 115 64 6 20 9 40 5 46 -4 6 6 7 26 3 23 -4 30 -3
25 5 -4 7 -2 12 4 12 7 0 10 6 7 14 -3 8 -4 16 -2 18 5 5 58 1 83 -7z m-2375
-184 c14 -2 7 -21 -9 -21 -14 0 -14 -3 -4 -15 10 -11 16 -12 26 -4 20 17 42
-34 24 -56 -7 -9 -19 -14 -26 -11 -8 3 -15 -6 -19 -24 -9 -40 -48 -61 -67 -35
-13 18 -22 -6 -10 -25 7 -11 12 -24 12 -30 0 -15 -31 -12 -51 6 -24 21 -73 10
-93 -22 -13 -19 -25 -24 -57 -24 -23 0 -53 7 -68 16 -25 15 -30 15 -59 0 -43
-22 -45 -21 -38 24 4 25 2 40 -4 40 -5 0 -10 -8 -10 -19 0 -14 -6 -17 -25 -13
-18 3 -25 0 -25 -12 0 -20 -43 -22 -62 -2 -17 16 -70 18 -80 2 -4 -6 -8 -21
-8 -34 0 -18 4 -22 19 -17 21 6 33 -6 37 -42 2 -17 -3 -23 -17 -23 -13 0 -19
6 -17 18 4 22 -47 30 -55 9 -4 -11 0 -13 14 -10 20 6 24 -4 11 -24 -5 -8 -32
-12 -76 -11 -54 1 -72 -3 -81 -15 -7 -10 -17 -17 -24 -17 -6 0 -11 -4 -11 -10
0 -5 -16 -10 -35 -10 -29 0 -35 -4 -33 -17 2 -13 -4 -18 -20 -18 -13 0 -27 -6
-31 -14 -7 -10 -9 -9 -14 3 -7 17 -47 22 -47 6 0 -5 10 -10 22 -10 17 0 19 -3
10 -12 -10 -10 -17 -10 -33 0 -25 16 -79 6 -79 -14 0 -17 -16 -19 -26 -3 -5 8
-10 6 -16 -5 -5 -9 -20 -16 -33 -16 -14 0 -25 -4 -25 -10 0 -5 -7 -10 -15 -10
-8 0 -15 5 -15 10 0 6 -4 10 -10 10 -5 0 -10 -6 -10 -14 0 -15 -73 -29 -107
-20 -11 3 -24 1 -27 -5 -5 -7 3 -11 22 -11 26 0 28 -3 24 -30 -3 -19 -10 -30
-21 -30 -12 0 -13 2 -3 9 11 6 10 10 -4 15 -9 4 -22 2 -27 -3 -5 -5 -26 -7
-47 -4 -33 5 -38 3 -37 -13 1 -11 -4 -18 -11 -16 -8 1 -16 -7 -19 -18 -3 -12
-14 -20 -26 -20 -11 0 -26 -8 -34 -17 -14 -17 -14 -17 -9 0 3 9 2 17 -3 17 -5
0 -11 -9 -14 -21 -5 -17 -12 -20 -48 -16 -25 3 -45 11 -51 21 -12 21 -50 22
-42 1 9 -21 -34 -20 -58 2 -21 18 -77 19 -110 2 -14 -7 -23 -7 -34 2 -11 9
-14 8 -14 -5 0 -9 -6 -16 -12 -16 -7 0 -25 -7 -40 -14 -16 -8 -48 -18 -73 -21
-26 -4 -42 -11 -39 -17 4 -6 -3 -5 -15 2 -18 9 -20 14 -10 26 6 8 18 14 25 14
8 0 14 4 14 9 0 13 81 51 108 51 11 0 23 4 26 9 8 13 79 25 146 26 42 0 55 4
55 15 0 19 14 30 42 30 12 0 26 7 31 16 12 21 108 26 105 7 -2 -8 8 -13 27
-13 24 0 35 8 56 40 21 32 33 40 56 40 16 0 38 -4 48 -10 21 -11 50 10 50 36
0 7 9 19 20 26 11 7 20 20 20 30 0 9 8 17 18 17 24 0 50 6 58 13 3 4 15 1 26
-5 16 -10 22 -9 33 7 11 15 23 18 60 14 25 -3 48 -2 51 3 3 5 14 9 25 9 11 0
27 7 35 15 9 8 28 15 43 15 16 0 34 6 41 14 6 8 19 12 28 9 9 -3 14 -2 9 2
-10 12 22 45 45 45 10 0 27 -6 38 -12 14 -9 25 -10 38 -2 9 6 31 7 49 4 25 -6
30 -4 25 8 -3 10 -1 13 6 8 8 -5 12 0 12 12 0 17 9 21 63 26 34 3 69 5 77 4
38 -3 48 2 43 23 -5 20 -3 21 27 17 24 -4 38 0 52 14 13 13 26 17 40 12 13 -4
18 -2 14 4 -3 6 -2 21 2 33 l9 23 12 -23 c7 -13 18 -20 26 -17 8 3 17 1 20 -4
4 -6 14 -6 26 1 15 7 24 7 34 -1 11 -9 16 -7 24 9 15 26 14 38 -1 23 -7 -7
-21 -12 -31 -12 -16 0 -17 3 -7 15 7 8 16 13 20 10 5 -3 12 0 16 6 4 8 9 7 15
-2 7 -11 11 -11 17 -2 4 6 28 13 52 15 40 3 45 6 48 29 3 23 7 26 40 24 20 -1
40 -3 45 -4z m-1846 -41 c5 -19 6 -19 19 -3 10 14 15 15 25 6 10 -10 9 -14 -4
-19 -9 -3 -17 -10 -17 -15 0 -13 47 -11 55 1 5 8 11 7 21 -1 23 -19 16 -29
-18 -29 -30 -1 -31 -2 -15 -14 18 -14 7 -33 -12 -21 -5 3 -12 1 -16 -5 -3 -5
-22 -10 -40 -10 -42 0 -71 -36 -61 -75 6 -23 4 -25 -25 -25 -28 0 -30 -2 -18
-17 13 -15 12 -16 -9 -11 -25 7 -42 -14 -39 -47 2 -17 -6 -21 -45 -25 -27 -3
-48 -3 -48 0 0 3 -13 5 -30 6 -16 1 -27 -2 -25 -7 3 -4 -2 -14 -11 -23 -8 -9
-12 -21 -9 -26 7 -12 -112 -130 -131 -130 -6 0 -18 -7 -25 -16 -9 -11 -23 -14
-46 -11 -25 4 -33 2 -33 -9 0 -8 -9 -14 -20 -14 -12 0 -17 -5 -14 -14 3 -7 -3
-17 -13 -20 -17 -7 -17 -8 0 -21 18 -13 18 -14 0 -23 -10 -5 -23 -7 -30 -5 -6
2 -14 -1 -18 -6 -11 -18 -35 -12 -35 9 0 11 -7 20 -16 20 -8 0 -12 5 -9 10 5
8 11 7 20 0 8 -7 19 -9 25 -5 17 11 11 25 -12 26 l-23 2 23 4 c17 3 22 11 22
34 0 26 3 29 31 29 22 0 32 5 36 20 3 11 9 17 14 14 5 -3 9 1 9 8 0 8 20 19
44 27 29 8 46 19 49 33 4 15 11 18 26 13 15 -4 21 -2 21 8 0 8 7 17 15 21 8 3
15 14 15 25 0 11 5 23 10 26 6 3 10 24 10 45 0 21 5 42 10 45 6 4 9 19 8 33
-2 22 2 28 20 30 13 2 29 -1 36 -7 16 -13 66 2 66 20 0 6 6 9 13 6 6 -2 20 3
30 11 16 14 19 14 31 -4 12 -15 17 -16 27 -7 9 9 9 16 1 25 -6 8 -7 19 -2 28
7 11 11 11 24 1 9 -8 16 -9 16 -3 0 6 -6 13 -12 15 -10 4 -9 8 2 16 13 9 12
12 -5 26 -19 15 -18 16 18 10 29 -5 37 -3 37 9 0 13 14 21 43 25 5 0 11 -8 14
-19z m4631 -460 c13 -29 32 -41 32 -20 0 6 -4 10 -10 10 -5 0 -10 10 -10 21 0
21 1 20 20 -4 13 -16 27 -24 36 -20 10 4 17 -2 21 -16 7 -25 20 -27 26 -3 3
13 6 11 17 -12 13 -25 12 -30 -5 -42 -25 -19 -35 -18 -35 4 -1 15 -2 15 -12
-2 -7 -13 -8 -21 -1 -23 14 -5 3 -54 -13 -60 -8 -3 -14 -11 -14 -18 0 -7 -9
-24 -20 -38 -25 -31 -25 -33 1 -40 12 -3 18 -10 14 -17 -4 -6 -14 -9 -22 -6
-11 4 -13 1 -8 -14 7 -22 -22 -69 -42 -70 -7 0 -13 -9 -13 -20 0 -11 -4 -20
-8 -20 -5 0 -17 -7 -28 -16 -10 -8 -13 -13 -6 -9 6 3 12 1 12 -4 0 -6 -4 -11
-10 -11 -5 0 -10 -6 -10 -14 0 -8 -7 -16 -15 -20 -8 -3 -15 -1 -15 4 0 6 -4
10 -10 10 -5 0 -10 -7 -10 -15 0 -8 -6 -15 -14 -15 -8 0 -12 -9 -10 -25 2 -24
-6 -47 -31 -85 -5 -8 -10 -19 -11 -25 0 -5 -2 -16 -2 -22 -1 -7 -9 -13 -17
-13 -30 0 -84 -72 -86 -112 0 -13 -3 -17 -6 -10 -8 21 -23 13 -23 -13 0 -14
-4 -25 -10 -25 -5 0 -10 -4 -10 -10 0 -5 -10 -20 -22 -32 -21 -21 -32 -23
-128 -23 -125 0 -130 1 -130 27 0 18 27 54 96 129 12 14 13 18 2 21 -19 7 7
36 35 40 20 3 29 14 61 85 13 30 13 34 -2 43 -11 6 -12 9 -4 10 7 0 29 17 48
37 19 20 45 41 57 47 14 8 23 22 25 42 2 24 14 39 45 62 23 16 52 50 64 73 34
67 67 103 86 96 22 -8 21 -23 -3 -47 -11 -11 -20 -25 -20 -30 0 -6 -8 -25 -17
-43 -9 -18 -18 -36 -18 -42 -1 -5 -3 -13 -5 -17 -5 -14 -7 -28 -9 -44 -1 -12
-7 -15 -26 -10 -26 7 -35 -8 -11 -17 12 -5 13 -13 5 -39 -14 -50 -12 -67 7
-43 8 11 12 26 9 33 -3 8 3 16 14 19 11 3 21 12 23 21 3 14 5 14 19 -1 16 -15
17 -14 21 8 3 13 1 22 -3 19 -12 -7 -11 0 3 31 6 14 17 25 23 25 7 0 15 13 18
29 4 18 14 31 29 35 19 5 21 8 8 16 -13 9 -11 14 11 33 14 13 29 32 34 42 14
33 8 122 -10 149 -10 14 -13 26 -8 26 5 0 8 14 5 30 -2 17 0 30 4 30 5 0 15
-13 22 -30z m-2170 -137 c-2 -22 -9 -29 -30 -31 -28 -3 -39 -21 -15 -23 6 -1
17 -2 22 -4 6 -1 16 -3 22 -3 7 -1 12 -10 11 -19 -2 -27 13 -83 23 -83 5 0 9
13 9 29 0 17 4 32 9 36 16 10 22 -12 10 -39 -9 -20 -9 -29 1 -41 16 -19 29
-11 46 31 14 34 45 46 59 24 4 -6 11 -8 16 -5 5 4 8 -6 8 -22 -1 -17 -3 -21
-6 -10 -2 9 -8 17 -11 17 -8 0 -32 -49 -32 -65 0 -9 -20 -20 -70 -40 -3 -1
-16 -6 -31 -12 -14 -6 -37 -9 -52 -6 -20 4 -27 1 -27 -10 0 -9 -5 -28 -12 -44
-6 -15 -12 -31 -12 -35 -1 -3 -5 -10 -10 -15 -5 -4 -5 7 -1 25 9 42 -19 72
-65 72 -30 0 -31 1 -25 31 6 24 4 30 -6 27 -10 -3 -14 -27 -15 -83 -2 -74 -4
-81 -30 -102 -16 -13 -45 -28 -65 -33 -31 -9 -38 -15 -43 -45 -4 -20 -11 -33
-16 -30 -5 3 -7 12 -3 20 8 22 -14 18 -26 -3 -5 -10 -28 -24 -51 -31 -29 -9
-40 -17 -36 -27 4 -10 -3 -14 -24 -14 -18 0 -30 -5 -30 -13 0 -7 -8 -17 -19
-24 -15 -9 -23 -8 -40 3 -11 8 -26 12 -33 8 -7 -5 -4 -10 10 -15 12 -5 22 -16
21 -26 0 -11 -3 -13 -6 -5 -8 21 -35 14 -28 -8 4 -11 2 -20 -4 -20 -6 0 -15
15 -20 32 -9 32 -9 32 -10 6 -1 -31 -17 -38 -24 -10 -4 13 -5 12 -7 -5 -1 -13
-3 -29 -4 -35 -1 -7 -11 -13 -22 -12 -15 0 -20 -5 -17 -15 4 -18 -39 -40 -92
-48 -40 -5 -297 -10 -312 -5 -19 6 7 52 29 52 10 0 18 6 18 14 0 17 40 28 55
16 14 -12 25 -3 19 15 -8 19 14 29 32 14 12 -10 13 -9 9 4 -4 8 5 33 19 56 14
22 29 59 32 82 5 29 13 43 25 46 11 3 19 9 19 14 0 5 11 9 25 9 19 0 23 4 19
18 -4 9 2 5 13 -10 18 -26 19 -26 42 -9 13 10 22 25 19 32 -7 17 58 25 77 9 9
-8 14 -6 18 4 3 8 1 16 -5 18 -6 2 -8 9 -4 16 4 7 14 8 30 2 18 -7 29 -3 49
16 31 28 34 44 11 44 -9 0 -14 6 -11 13 2 6 12 11 21 9 9 -2 19 4 22 13 3 8
17 15 30 15 12 0 28 8 33 18 6 9 11 11 11 5 0 -7 7 -13 16 -13 10 0 14 5 10
15 -3 9 1 18 10 22 11 4 14 14 10 34 -4 23 -1 31 17 40 12 7 46 36 75 66 29
29 61 53 72 53 10 0 20 6 23 13 3 8 11 3 25 -13 20 -24 20 -24 41 -6 11 10 28
16 38 14 10 -3 32 1 48 8 17 7 40 13 53 14 20 0 23 -4 20 -27z m-2783 -148
c-16 -13 -58 -38 -92 -56 -34 -17 -72 -42 -84 -55 -12 -13 -27 -24 -32 -24
-17 0 -138 -104 -161 -137 -20 -29 -25 -31 -41 -20 -17 13 -17 15 -1 40 10 14
43 43 74 64 31 20 74 50 95 66 20 16 37 26 37 23 0 -2 27 21 61 52 58 55 85
67 149 71 l25 1 -30 -25z"/>
<path d="M5670 10537 c0 -5 -6 -7 -14 -4 -25 10 -32 -15 -31 -106 0 -63 -3
-86 -12 -83 -6 3 -15 -3 -18 -12 -11 -24 -12 -62 -3 -62 13 0 9 -20 -7 -37 -9
-8 -13 -23 -10 -34 5 -15 -7 -53 -32 -101 -2 -5 0 -8 5 -8 10 0 68 120 66 137
-1 7 2 10 8 7 10 -7 6 35 -5 54 -10 15 -2 15 24 2 16 -9 21 -7 28 12 5 15 5
26 -3 31 -7 5 -8 9 -1 15 24 16 56 85 46 95 -8 8 -11 7 -11 -3 0 -9 -5 -8 -16
6 -13 16 -15 16 -10 2 3 -10 1 -18 -4 -18 -6 0 -10 9 -10 20 0 11 -4 20 -10
20 -5 0 -10 5 -10 10 0 14 27 13 32 -2 2 -6 15 0 32 17 15 15 24 30 20 34 -4
3 -9 0 -11 -6 -7 -21 -25 -15 -19 5 4 13 1 19 -9 19 -8 0 -15 -5 -15 -10z"/>
</g>
</svg>
